<svg width="20" height="21" viewBox="0 0 20 21" fill="none" xmlns="http://www.w3.org/2000/svg">
<path d="M16.8751 1.75C16.334 1.74977 15.8074 1.92517 15.3746 2.24983C14.9417 2.57449 14.6259 3.03088 14.4747 3.5504C14.3234 4.06992 14.3449 4.62449 14.5358 5.13077C14.7267 5.63705 15.0769 6.06768 15.5335 6.35793L13.9022 12.0676C13.8515 12.0644 13.8008 12.0627 13.7501 12.0625C13.2123 12.0619 12.6888 12.2357 12.2582 12.5577L9.24433 10.0462C9.38701 9.62287 9.41365 9.16904 9.32147 8.73191C9.2293 8.29479 9.02168 7.89035 8.72021 7.56067C8.41874 7.23099 8.03444 6.98812 7.60728 6.85731C7.18013 6.7265 6.72572 6.71254 6.29135 6.81689C5.85697 6.92123 5.45848 7.14006 5.13735 7.45062C4.81621 7.76117 4.58416 8.15211 4.46533 8.58275C4.3465 9.01339 4.34524 9.46801 4.46167 9.8993C4.5781 10.3306 4.80797 10.7228 5.12737 11.0352L3.35815 14.5737C3.28068 14.5664 3.2029 14.5626 3.12507 14.5625C2.52615 14.5617 1.94681 14.7757 1.4922 15.1656C1.03759 15.5556 0.737847 16.0955 0.64738 16.6876C0.556913 17.2796 0.681717 17.8845 0.999139 18.3924C1.31656 18.9003 1.80556 19.2775 2.37738 19.4556C2.94919 19.6338 3.56592 19.601 4.11562 19.3632C4.66532 19.1254 5.11155 18.6984 5.37332 18.1598C5.63508 17.6211 5.69503 17.0064 5.54228 16.4273C5.38953 15.8482 5.03421 15.343 4.54081 15.0035L6.21269 11.6602C6.61881 11.7722 7.04669 11.7796 7.45642 11.6815C7.86614 11.5834 8.24434 11.3832 8.55573 11.0994L11.4737 13.5311C11.2756 13.9678 11.2072 14.4522 11.2767 14.9267C11.3462 15.4011 11.5507 15.8456 11.8658 16.207C12.1809 16.5685 12.5933 16.8317 13.0539 16.9653C13.5144 17.0988 14.0037 17.0971 14.4633 16.9604C14.9229 16.8236 15.3334 16.5576 15.646 16.1939C15.9586 15.8303 16.1601 15.3845 16.2263 14.9095C16.2925 14.4346 16.2208 13.9507 16.0196 13.5154C15.8185 13.0801 15.4964 12.7119 15.0917 12.4546L16.723 6.74492C16.7733 6.74797 16.8239 6.75 16.8751 6.75C17.5381 6.75 18.174 6.48661 18.6428 6.01777C19.1117 5.54893 19.3751 4.91304 19.3751 4.25C19.3751 3.58696 19.1117 2.95107 18.6428 2.48223C18.174 2.01339 17.5381 1.75 16.8751 1.75V1.75ZM3.12507 18.3125C2.87784 18.3125 2.63617 18.2392 2.43061 18.1018C2.22504 17.9645 2.06483 17.7693 1.97022 17.5409C1.87561 17.3124 1.85086 17.0611 1.89909 16.8186C1.94732 16.5762 2.06637 16.3534 2.24118 16.1786C2.416 16.0038 2.63873 15.8847 2.88121 15.8365C3.12368 15.7883 3.37502 15.813 3.60342 15.9077C3.83183 16.0023 4.02705 16.1625 4.16441 16.368C4.30176 16.5736 4.37507 16.8153 4.37507 17.0625C4.3747 17.3939 4.24288 17.7116 4.00854 17.946C3.7742 18.1803 3.45647 18.3121 3.12507 18.3125V18.3125ZM6.87507 10.5C6.62784 10.5 6.38617 10.4267 6.18061 10.2893C5.97504 10.152 5.81483 9.95676 5.72022 9.72835C5.62561 9.49995 5.60085 9.24861 5.64909 9.00614C5.69732 8.76366 5.81637 8.54093 5.99118 8.36612C6.166 8.1913 6.38873 8.07225 6.63121 8.02402C6.87368 7.97579 7.12501 8.00054 7.35342 8.09515C7.58183 8.18976 7.77705 8.34998 7.91441 8.55554C8.05176 8.7611 8.12507 9.00277 8.12507 9.25C8.1247 9.58141 7.99288 9.89913 7.75854 10.1335C7.5242 10.3678 7.20647 10.4996 6.87507 10.5ZM13.7501 15.8125C13.5028 15.8125 13.2612 15.7392 13.0556 15.6018C12.85 15.4645 12.6898 15.2693 12.5952 15.0409C12.5006 14.8124 12.4759 14.5611 12.5241 14.3186C12.5723 14.0762 12.6914 13.8534 12.8662 13.6786C13.041 13.5038 13.2637 13.3847 13.5062 13.3365C13.7487 13.2883 14 13.313 14.2284 13.4077C14.4568 13.5023 14.6521 13.6625 14.7894 13.868C14.9268 14.0736 15.0001 14.3153 15.0001 14.5625C14.9997 14.8939 14.8679 15.2116 14.6335 15.446C14.3992 15.6803 14.0815 15.8121 13.7501 15.8125V15.8125ZM16.8751 5.5C16.6278 5.5 16.3862 5.42669 16.1806 5.28934C15.975 5.15199 15.8148 4.95676 15.7202 4.72835C15.6256 4.49995 15.6009 4.24861 15.6491 4.00614C15.6973 3.76366 15.8164 3.54093 15.9912 3.36612C16.166 3.1913 16.3887 3.07225 16.6312 3.02402C16.8737 2.97579 17.125 3.00054 17.3534 3.09515C17.5818 3.18976 17.7771 3.34998 17.9144 3.55554C18.0518 3.7611 18.1251 4.00277 18.1251 4.25C18.1247 4.58141 17.9929 4.89913 17.7585 5.13347C17.5242 5.36781 17.2065 5.49963 16.8751 5.5Z" fill="black"/>
</svg>
