<svg width="17" height="20" viewBox="0 0 17 20" fill="none" xmlns="http://www.w3.org/2000/svg">
<path d="M8.50024 13.3333C8.33473 13.3337 8.17434 13.2659 8.0469 13.1417L3.7969 8.975C3.65225 8.83355 3.56128 8.63029 3.54401 8.40993C3.52674 8.18958 3.58459 7.97018 3.70482 7.8C3.82505 7.62982 3.99782 7.5228 4.18512 7.50248C4.37243 7.48216 4.55892 7.55022 4.70357 7.69166L8.50024 11.425L12.2969 7.825C12.3694 7.75578 12.4527 7.70408 12.5422 7.67289C12.6317 7.6417 12.7256 7.63162 12.8184 7.64324C12.9112 7.65485 13.0011 7.68793 13.083 7.74058C13.1649 7.79322 13.2372 7.86439 13.2957 7.95C13.3605 8.03568 13.4096 8.1362 13.44 8.24527C13.4703 8.35433 13.4811 8.46958 13.4718 8.5838C13.4625 8.69802 13.4332 8.80874 13.3859 8.90904C13.3385 9.00934 13.274 9.09704 13.1965 9.16666L8.94649 13.1917C8.81538 13.2963 8.65826 13.3461 8.50024 13.3333Z" fill="black"/>
</svg>
