<svg width="55" height="58" viewBox="0 0 55 58" fill="none" xmlns="http://www.w3.org/2000/svg">
<path d="M54.5819 42.6589C51.8804 47.7186 47.7392 51.8635 42.6821 54.5695C37.6249 57.2756 31.8788 58.4213 26.1705 57.8616C20.4623 57.302 15.0481 55.0623 10.6127 51.4256C6.17736 47.789 2.91999 42.9187 1.25254 37.4308C-0.414916 31.9429 -0.417565 26.0837 1.24493 20.5943C2.90742 15.1049 6.16038 10.2317 10.5925 6.59102C15.0245 2.95035 20.4367 0.705701 26.1445 0.140928C31.8522 -0.423845 37.5993 0.716619 42.6589 3.41811L39.2248 9.84994C35.4373 7.82766 31.1351 6.97394 26.8624 7.39671C22.5897 7.81949 18.5383 9.49978 15.2205 12.2251C11.9027 14.9504 9.46765 18.5984 8.22314 22.7077C6.97864 26.8169 6.98062 31.203 8.22884 35.3111C9.47706 39.4193 11.9155 43.065 15.2357 45.7873C18.5559 48.5097 22.6088 50.1863 26.8819 50.6052C31.155 51.0241 35.4564 50.1665 39.2421 48.1408C43.0278 46.1151 46.1278 43.0123 48.1501 39.2248L54.5819 42.6589Z" fill="#0F3041"/>
<path d="M30.5 44C38.5081 44 45 37.5081 45 29.5C45 21.4919 38.5081 15 30.5 15C22.4919 15 16 21.4919 16 29.5C16 37.5081 22.4919 44 30.5 44Z" fill="#C8242F"/>
</svg>
