<svg width="10" height="8" viewBox="0 0 10 8" fill="none" xmlns="http://www.w3.org/2000/svg">
<path d="M9.30436 1.44742C9.41166 1.34013 9.47194 1.1946 9.47194 1.04285C9.47194 0.89111 9.41166 0.745581 9.30436 0.638282C9.19706 0.530983 9.05153 0.470703 8.89979 0.470703C8.74804 0.470703 8.60252 0.530983 8.49522 0.638282L3.1855 5.94914L1.30436 4.06685C1.19706 3.95955 1.05153 3.89927 0.899787 3.89927C0.748044 3.89927 0.602515 3.95955 0.495216 4.06685C0.387917 4.17415 0.327637 4.31968 0.327637 4.47142C0.327637 4.62317 0.387917 4.7687 0.495216 4.876L2.78093 7.16171C2.83401 7.21492 2.89707 7.25714 2.96649 7.28595C3.03592 7.31476 3.11034 7.32959 3.1855 7.32959C3.26066 7.32959 3.33509 7.31476 3.40451 7.28595C3.47393 7.25714 3.53699 7.21492 3.59007 7.16171L9.30436 1.44742Z" fill="#ADADAD"/>
</svg>
