<svg width="604" height="293" viewBox="0 0 604 293" fill="none" xmlns="http://www.w3.org/2000/svg">
<path d="M60.9688 290L58.0625 282.406H58.0156C58.0703 283.008 58.0977 283.723 58.0977 284.551V290H57.1777V281.434H58.6777L61.3906 288.5H61.4375L64.1738 281.434H65.6621V290H64.666V284.48C64.666 283.848 64.6934 283.16 64.748 282.418H64.7012L61.7715 290H60.9688ZM73.4141 286.783C73.4141 287.83 73.1504 288.648 72.623 289.238C72.0957 289.824 71.3672 290.117 70.4375 290.117C69.8633 290.117 69.3535 289.982 68.9082 289.713C68.4629 289.443 68.1191 289.057 67.877 288.553C67.6348 288.049 67.5137 287.459 67.5137 286.783C67.5137 285.736 67.7754 284.922 68.2988 284.34C68.8223 283.754 69.5488 283.461 70.4785 283.461C71.377 283.461 72.0898 283.76 72.6172 284.357C73.1484 284.955 73.4141 285.764 73.4141 286.783ZM68.5215 286.783C68.5215 287.604 68.6855 288.229 69.0137 288.658C69.3418 289.088 69.8242 289.303 70.4609 289.303C71.0977 289.303 71.5801 289.09 71.9082 288.664C72.2402 288.234 72.4062 287.607 72.4062 286.783C72.4062 285.967 72.2402 285.348 71.9082 284.926C71.5801 284.5 71.0938 284.287 70.4492 284.287C69.8125 284.287 69.332 284.496 69.0078 284.914C68.6836 285.332 68.5215 285.955 68.5215 286.783ZM79.5195 290V285.846C79.5195 285.322 79.4004 284.932 79.1621 284.674C78.9238 284.416 78.5508 284.287 78.043 284.287C77.3711 284.287 76.8789 284.469 76.5664 284.832C76.2539 285.195 76.0977 285.795 76.0977 286.631V290H75.125V283.578H75.916L76.0742 284.457H76.1211C76.3203 284.141 76.5996 283.896 76.959 283.725C77.3184 283.549 77.7188 283.461 78.1602 283.461C78.9336 283.461 79.5156 283.648 79.9062 284.023C80.2969 284.395 80.4922 284.99 80.4922 285.811V290H79.5195Z" fill="#CFD2DC"/>
<path d="M6.26367 252.705C6.26367 254.186 6.0293 255.291 5.56055 256.021C5.0957 256.752 4.38281 257.117 3.42188 257.117C2.5 257.117 1.79883 256.744 1.31836 255.998C0.837891 255.248 0.597656 254.15 0.597656 252.705C0.597656 251.213 0.830078 250.105 1.29492 249.383C1.75977 248.66 2.46875 248.299 3.42188 248.299C4.35156 248.299 5.05664 248.676 5.53711 249.43C6.02148 250.184 6.26367 251.275 6.26367 252.705ZM1.58203 252.705C1.58203 253.951 1.72852 254.859 2.02148 255.43C2.31445 255.996 2.78125 256.279 3.42188 256.279C4.07031 256.279 4.53906 255.992 4.82812 255.418C5.12109 254.84 5.26758 253.936 5.26758 252.705C5.26758 251.475 5.12109 250.574 4.82812 250.004C4.53906 249.43 4.07031 249.143 3.42188 249.143C2.78125 249.143 2.31445 249.426 2.02148 249.992C1.72852 250.555 1.58203 251.459 1.58203 252.705Z" fill="#CFD2DC"/>
<path d="M3.26367 190.768C4.16602 190.768 4.875 190.992 5.39062 191.441C5.91016 191.887 6.16992 192.498 6.16992 193.275C6.16992 194.162 5.88672 194.857 5.32031 195.361C4.75781 195.865 3.98047 196.117 2.98828 196.117C2.02344 196.117 1.28711 195.963 0.779297 195.654V194.717C1.05273 194.893 1.39258 195.031 1.79883 195.133C2.20508 195.23 2.60547 195.279 3 195.279C3.6875 195.279 4.2207 195.117 4.59961 194.793C4.98242 194.469 5.17383 194 5.17383 193.387C5.17383 192.191 4.44141 191.594 2.97656 191.594C2.60547 191.594 2.10938 191.65 1.48828 191.764L0.984375 191.441L1.30664 187.434H5.56641V188.33H2.13867L1.92188 190.902C2.37109 190.812 2.81836 190.768 3.26367 190.768ZM8.91797 194.605L9.00586 194.74C8.9043 195.131 8.75781 195.584 8.56641 196.1C8.375 196.619 8.17578 197.102 7.96875 197.547H7.23633C7.3418 197.141 7.45703 196.639 7.58203 196.041C7.71094 195.443 7.80078 194.965 7.85156 194.605H8.91797ZM16.0723 191.705C16.0723 193.186 15.8379 194.291 15.3691 195.021C14.9043 195.752 14.1914 196.117 13.2305 196.117C12.3086 196.117 11.6074 195.744 11.127 194.998C10.6465 194.248 10.4062 193.15 10.4062 191.705C10.4062 190.213 10.6387 189.105 11.1035 188.383C11.5684 187.66 12.2773 187.299 13.2305 187.299C14.1602 187.299 14.8652 187.676 15.3457 188.43C15.8301 189.184 16.0723 190.275 16.0723 191.705ZM11.3906 191.705C11.3906 192.951 11.5371 193.859 11.8301 194.43C12.123 194.996 12.5898 195.279 13.2305 195.279C13.8789 195.279 14.3477 194.992 14.6367 194.418C14.9297 193.84 15.0762 192.936 15.0762 191.705C15.0762 190.475 14.9297 189.574 14.6367 189.004C14.3477 188.43 13.8789 188.143 13.2305 188.143C12.5898 188.143 12.123 188.426 11.8301 188.992C11.5371 189.555 11.3906 190.459 11.3906 191.705ZM22.9395 191.705C22.9395 193.186 22.7051 194.291 22.2363 195.021C21.7715 195.752 21.0586 196.117 20.0977 196.117C19.1758 196.117 18.4746 195.744 17.9941 194.998C17.5137 194.248 17.2734 193.15 17.2734 191.705C17.2734 190.213 17.5059 189.105 17.9707 188.383C18.4355 187.66 19.1445 187.299 20.0977 187.299C21.0273 187.299 21.7324 187.676 22.2129 188.43C22.6973 189.184 22.9395 190.275 22.9395 191.705ZM18.2578 191.705C18.2578 192.951 18.4043 193.859 18.6973 194.43C18.9902 194.996 19.457 195.279 20.0977 195.279C20.7461 195.279 21.2148 194.992 21.5039 194.418C21.7969 193.84 21.9434 192.936 21.9434 191.705C21.9434 190.475 21.7969 189.574 21.5039 189.004C21.2148 188.43 20.7461 188.143 20.0977 188.143C19.457 188.143 18.9902 188.426 18.6973 188.992C18.4043 189.555 18.2578 190.459 18.2578 191.705ZM29.8066 191.705C29.8066 193.186 29.5723 194.291 29.1035 195.021C28.6387 195.752 27.9258 196.117 26.9648 196.117C26.043 196.117 25.3418 195.744 24.8613 194.998C24.3809 194.248 24.1406 193.15 24.1406 191.705C24.1406 190.213 24.373 189.105 24.8379 188.383C25.3027 187.66 26.0117 187.299 26.9648 187.299C27.8945 187.299 28.5996 187.676 29.0801 188.43C29.5645 189.184 29.8066 190.275 29.8066 191.705ZM25.125 191.705C25.125 192.951 25.2715 193.859 25.5645 194.43C25.8574 194.996 26.3242 195.279 26.9648 195.279C27.6133 195.279 28.082 194.992 28.3711 194.418C28.6641 193.84 28.8105 192.936 28.8105 191.705C28.8105 190.475 28.6641 189.574 28.3711 189.004C28.082 188.43 27.6133 188.143 26.9648 188.143C26.3242 188.143 25.8574 188.426 25.5645 188.992C25.2715 189.555 25.125 190.459 25.125 191.705Z" fill="#CFD2DC"/>
<path d="M4.18945 135H3.24023V128.895C3.24023 128.387 3.25586 127.906 3.28711 127.453C3.20508 127.535 3.11328 127.621 3.01172 127.711C2.91016 127.801 2.44531 128.182 1.61719 128.854L1.10156 128.186L3.36914 126.434H4.18945V135ZM13.1309 130.705C13.1309 132.186 12.8965 133.291 12.4277 134.021C11.9629 134.752 11.25 135.117 10.2891 135.117C9.36719 135.117 8.66602 134.744 8.18555 133.998C7.70508 133.248 7.46484 132.15 7.46484 130.705C7.46484 129.213 7.69727 128.105 8.16211 127.383C8.62695 126.66 9.33594 126.299 10.2891 126.299C11.2188 126.299 11.9238 126.676 12.4043 127.43C12.8887 128.184 13.1309 129.275 13.1309 130.705ZM8.44922 130.705C8.44922 131.951 8.5957 132.859 8.88867 133.43C9.18164 133.996 9.64844 134.279 10.2891 134.279C10.9375 134.279 11.4062 133.992 11.6953 133.418C11.9883 132.84 12.1348 131.936 12.1348 130.705C12.1348 129.475 11.9883 128.574 11.6953 128.004C11.4062 127.43 10.9375 127.143 10.2891 127.143C9.64844 127.143 9.18164 127.426 8.88867 127.992C8.5957 128.555 8.44922 129.459 8.44922 130.705ZM15.7852 133.605L15.873 133.74C15.7715 134.131 15.625 134.584 15.4336 135.1C15.2422 135.619 15.043 136.102 14.8359 136.547H14.1035C14.209 136.141 14.3242 135.639 14.4492 135.041C14.5781 134.443 14.668 133.965 14.7188 133.605H15.7852ZM22.9395 130.705C22.9395 132.186 22.7051 133.291 22.2363 134.021C21.7715 134.752 21.0586 135.117 20.0977 135.117C19.1758 135.117 18.4746 134.744 17.9941 133.998C17.5137 133.248 17.2734 132.15 17.2734 130.705C17.2734 129.213 17.5059 128.105 17.9707 127.383C18.4355 126.66 19.1445 126.299 20.0977 126.299C21.0273 126.299 21.7324 126.676 22.2129 127.43C22.6973 128.184 22.9395 129.275 22.9395 130.705ZM18.2578 130.705C18.2578 131.951 18.4043 132.859 18.6973 133.43C18.9902 133.996 19.457 134.279 20.0977 134.279C20.7461 134.279 21.2148 133.992 21.5039 133.418C21.7969 132.84 21.9434 131.936 21.9434 130.705C21.9434 129.475 21.7969 128.574 21.5039 128.004C21.2148 127.43 20.7461 127.143 20.0977 127.143C19.457 127.143 18.9902 127.426 18.6973 127.992C18.4043 128.555 18.2578 129.459 18.2578 130.705ZM29.8066 130.705C29.8066 132.186 29.5723 133.291 29.1035 134.021C28.6387 134.752 27.9258 135.117 26.9648 135.117C26.043 135.117 25.3418 134.744 24.8613 133.998C24.3809 133.248 24.1406 132.15 24.1406 130.705C24.1406 129.213 24.373 128.105 24.8379 127.383C25.3027 126.66 26.0117 126.299 26.9648 126.299C27.8945 126.299 28.5996 126.676 29.0801 127.43C29.5645 128.184 29.8066 129.275 29.8066 130.705ZM25.125 130.705C25.125 131.951 25.2715 132.859 25.5645 133.43C25.8574 133.996 26.3242 134.279 26.9648 134.279C27.6133 134.279 28.082 133.992 28.3711 133.418C28.6641 132.84 28.8105 131.936 28.8105 130.705C28.8105 129.475 28.6641 128.574 28.3711 128.004C28.082 127.43 27.6133 127.143 26.9648 127.143C26.3242 127.143 25.8574 127.426 25.5645 127.992C25.2715 128.555 25.125 129.459 25.125 130.705ZM36.6738 130.705C36.6738 132.186 36.4395 133.291 35.9707 134.021C35.5059 134.752 34.793 135.117 33.832 135.117C32.9102 135.117 32.209 134.744 31.7285 133.998C31.248 133.248 31.0078 132.15 31.0078 130.705C31.0078 129.213 31.2402 128.105 31.7051 127.383C32.1699 126.66 32.8789 126.299 33.832 126.299C34.7617 126.299 35.4668 126.676 35.9473 127.43C36.4316 128.184 36.6738 129.275 36.6738 130.705ZM31.9922 130.705C31.9922 131.951 32.1387 132.859 32.4316 133.43C32.7246 133.996 33.1914 134.279 33.832 134.279C34.4805 134.279 34.9492 133.992 35.2383 133.418C35.5312 132.84 35.6777 131.936 35.6777 130.705C35.6777 129.475 35.5312 128.574 35.2383 128.004C34.9492 127.43 34.4805 127.143 33.832 127.143C33.1914 127.143 32.7246 127.426 32.4316 127.992C32.1387 128.555 31.9922 129.459 31.9922 130.705Z" fill="#CFD2DC"/>
<path d="M4.18945 74H3.24023V67.8945C3.24023 67.3867 3.25586 66.9062 3.28711 66.4531C3.20508 66.5352 3.11328 66.6211 3.01172 66.7109C2.91016 66.8008 2.44531 67.1816 1.61719 67.8535L1.10156 67.1855L3.36914 65.4336H4.18945V74ZM10.1309 68.7676C11.0332 68.7676 11.7422 68.9922 12.2578 69.4414C12.7773 69.8867 13.0371 70.498 13.0371 71.2754C13.0371 72.1621 12.7539 72.8574 12.1875 73.3613C11.625 73.8652 10.8477 74.1172 9.85547 74.1172C8.89062 74.1172 8.1543 73.9629 7.64648 73.6543V72.7168C7.91992 72.8926 8.25977 73.0312 8.66602 73.1328C9.07227 73.2305 9.47266 73.2793 9.86719 73.2793C10.5547 73.2793 11.0879 73.1172 11.4668 72.793C11.8496 72.4688 12.041 72 12.041 71.3867C12.041 70.1914 11.3086 69.5938 9.84375 69.5938C9.47266 69.5938 8.97656 69.6504 8.35547 69.7637L7.85156 69.4414L8.17383 65.4336H12.4336V66.3301H9.00586L8.78906 68.9023C9.23828 68.8125 9.68555 68.7676 10.1309 68.7676ZM15.7852 72.6055L15.873 72.7402C15.7715 73.1309 15.625 73.584 15.4336 74.0996C15.2422 74.6191 15.043 75.1016 14.8359 75.5469H14.1035C14.209 75.1406 14.3242 74.6387 14.4492 74.041C14.5781 73.4434 14.668 72.9648 14.7188 72.6055H15.7852ZM22.9395 69.7051C22.9395 71.1855 22.7051 72.291 22.2363 73.0215C21.7715 73.752 21.0586 74.1172 20.0977 74.1172C19.1758 74.1172 18.4746 73.7441 17.9941 72.998C17.5137 72.248 17.2734 71.1504 17.2734 69.7051C17.2734 68.2129 17.5059 67.1055 17.9707 66.3828C18.4355 65.6602 19.1445 65.2988 20.0977 65.2988C21.0273 65.2988 21.7324 65.6758 22.2129 66.4297C22.6973 67.1836 22.9395 68.2754 22.9395 69.7051ZM18.2578 69.7051C18.2578 70.9512 18.4043 71.8594 18.6973 72.4297C18.9902 72.9961 19.457 73.2793 20.0977 73.2793C20.7461 73.2793 21.2148 72.9922 21.5039 72.418C21.7969 71.8398 21.9434 70.9355 21.9434 69.7051C21.9434 68.4746 21.7969 67.5742 21.5039 67.0039C21.2148 66.4297 20.7461 66.1426 20.0977 66.1426C19.457 66.1426 18.9902 66.4258 18.6973 66.9922C18.4043 67.5547 18.2578 68.459 18.2578 69.7051ZM29.8066 69.7051C29.8066 71.1855 29.5723 72.291 29.1035 73.0215C28.6387 73.752 27.9258 74.1172 26.9648 74.1172C26.043 74.1172 25.3418 73.7441 24.8613 72.998C24.3809 72.248 24.1406 71.1504 24.1406 69.7051C24.1406 68.2129 24.373 67.1055 24.8379 66.3828C25.3027 65.6602 26.0117 65.2988 26.9648 65.2988C27.8945 65.2988 28.5996 65.6758 29.0801 66.4297C29.5645 67.1836 29.8066 68.2754 29.8066 69.7051ZM25.125 69.7051C25.125 70.9512 25.2715 71.8594 25.5645 72.4297C25.8574 72.9961 26.3242 73.2793 26.9648 73.2793C27.6133 73.2793 28.082 72.9922 28.3711 72.418C28.6641 71.8398 28.8105 70.9355 28.8105 69.7051C28.8105 68.4746 28.6641 67.5742 28.3711 67.0039C28.082 66.4297 27.6133 66.1426 26.9648 66.1426C26.3242 66.1426 25.8574 66.4258 25.5645 66.9922C25.2715 67.5547 25.125 68.459 25.125 69.7051ZM36.6738 69.7051C36.6738 71.1855 36.4395 72.291 35.9707 73.0215C35.5059 73.752 34.793 74.1172 33.832 74.1172C32.9102 74.1172 32.209 73.7441 31.7285 72.998C31.248 72.248 31.0078 71.1504 31.0078 69.7051C31.0078 68.2129 31.2402 67.1055 31.7051 66.3828C32.1699 65.6602 32.8789 65.2988 33.832 65.2988C34.7617 65.2988 35.4668 65.6758 35.9473 66.4297C36.4316 67.1836 36.6738 68.2754 36.6738 69.7051ZM31.9922 69.7051C31.9922 70.9512 32.1387 71.8594 32.4316 72.4297C32.7246 72.9961 33.1914 73.2793 33.832 73.2793C34.4805 73.2793 34.9492 72.9922 35.2383 72.418C35.5312 71.8398 35.6777 70.9355 35.6777 69.7051C35.6777 68.4746 35.5312 67.5742 35.2383 67.0039C34.9492 66.4297 34.4805 66.1426 33.832 66.1426C33.1914 66.1426 32.7246 66.4258 32.4316 66.9922C32.1387 67.5547 31.9922 68.459 31.9922 69.7051Z" fill="#CFD2DC"/>
<path d="M6.2168 13H0.585938V12.1621L2.8418 9.89453C3.5293 9.19922 3.98242 8.70312 4.20117 8.40625C4.41992 8.10938 4.58398 7.82031 4.69336 7.53906C4.80273 7.25781 4.85742 6.95508 4.85742 6.63086C4.85742 6.17383 4.71875 5.8125 4.44141 5.54688C4.16406 5.27734 3.7793 5.14258 3.28711 5.14258C2.93164 5.14258 2.59375 5.20117 2.27344 5.31836C1.95703 5.43555 1.60352 5.64844 1.21289 5.95703L0.697266 5.29492C1.48633 4.63867 2.3457 4.31055 3.27539 4.31055C4.08008 4.31055 4.71094 4.51758 5.16797 4.93164C5.625 5.3418 5.85352 5.89453 5.85352 6.58984C5.85352 7.13281 5.70117 7.66992 5.39648 8.20117C5.0918 8.73242 4.52148 9.4043 3.68555 10.2168L1.81055 12.0508V12.0977H6.2168V13ZM13.1309 8.70508C13.1309 10.1855 12.8965 11.291 12.4277 12.0215C11.9629 12.752 11.25 13.1172 10.2891 13.1172C9.36719 13.1172 8.66602 12.7441 8.18555 11.998C7.70508 11.248 7.46484 10.1504 7.46484 8.70508C7.46484 7.21289 7.69727 6.10547 8.16211 5.38281C8.62695 4.66016 9.33594 4.29883 10.2891 4.29883C11.2188 4.29883 11.9238 4.67578 12.4043 5.42969C12.8887 6.18359 13.1309 7.27539 13.1309 8.70508ZM8.44922 8.70508C8.44922 9.95117 8.5957 10.8594 8.88867 11.4297C9.18164 11.9961 9.64844 12.2793 10.2891 12.2793C10.9375 12.2793 11.4062 11.9922 11.6953 11.418C11.9883 10.8398 12.1348 9.93555 12.1348 8.70508C12.1348 7.47461 11.9883 6.57422 11.6953 6.00391C11.4062 5.42969 10.9375 5.14258 10.2891 5.14258C9.64844 5.14258 9.18164 5.42578 8.88867 5.99219C8.5957 6.55469 8.44922 7.45898 8.44922 8.70508ZM15.7852 11.6055L15.873 11.7402C15.7715 12.1309 15.625 12.584 15.4336 13.0996C15.2422 13.6191 15.043 14.1016 14.8359 14.5469H14.1035C14.209 14.1406 14.3242 13.6387 14.4492 13.041C14.5781 12.4434 14.668 11.9648 14.7188 11.6055H15.7852ZM22.9395 8.70508C22.9395 10.1855 22.7051 11.291 22.2363 12.0215C21.7715 12.752 21.0586 13.1172 20.0977 13.1172C19.1758 13.1172 18.4746 12.7441 17.9941 11.998C17.5137 11.248 17.2734 10.1504 17.2734 8.70508C17.2734 7.21289 17.5059 6.10547 17.9707 5.38281C18.4355 4.66016 19.1445 4.29883 20.0977 4.29883C21.0273 4.29883 21.7324 4.67578 22.2129 5.42969C22.6973 6.18359 22.9395 7.27539 22.9395 8.70508ZM18.2578 8.70508C18.2578 9.95117 18.4043 10.8594 18.6973 11.4297C18.9902 11.9961 19.457 12.2793 20.0977 12.2793C20.7461 12.2793 21.2148 11.9922 21.5039 11.418C21.7969 10.8398 21.9434 9.93555 21.9434 8.70508C21.9434 7.47461 21.7969 6.57422 21.5039 6.00391C21.2148 5.42969 20.7461 5.14258 20.0977 5.14258C19.457 5.14258 18.9902 5.42578 18.6973 5.99219C18.4043 6.55469 18.2578 7.45898 18.2578 8.70508ZM29.8066 8.70508C29.8066 10.1855 29.5723 11.291 29.1035 12.0215C28.6387 12.752 27.9258 13.1172 26.9648 13.1172C26.043 13.1172 25.3418 12.7441 24.8613 11.998C24.3809 11.248 24.1406 10.1504 24.1406 8.70508C24.1406 7.21289 24.373 6.10547 24.8379 5.38281C25.3027 4.66016 26.0117 4.29883 26.9648 4.29883C27.8945 4.29883 28.5996 4.67578 29.0801 5.42969C29.5645 6.18359 29.8066 7.27539 29.8066 8.70508ZM25.125 8.70508C25.125 9.95117 25.2715 10.8594 25.5645 11.4297C25.8574 11.9961 26.3242 12.2793 26.9648 12.2793C27.6133 12.2793 28.082 11.9922 28.3711 11.418C28.6641 10.8398 28.8105 9.93555 28.8105 8.70508C28.8105 7.47461 28.6641 6.57422 28.3711 6.00391C28.082 5.42969 27.6133 5.14258 26.9648 5.14258C26.3242 5.14258 25.8574 5.42578 25.5645 5.99219C25.2715 6.55469 25.125 7.45898 25.125 8.70508ZM36.6738 8.70508C36.6738 10.1855 36.4395 11.291 35.9707 12.0215C35.5059 12.752 34.793 13.1172 33.832 13.1172C32.9102 13.1172 32.209 12.7441 31.7285 11.998C31.248 11.248 31.0078 10.1504 31.0078 8.70508C31.0078 7.21289 31.2402 6.10547 31.7051 5.38281C32.1699 4.66016 32.8789 4.29883 33.832 4.29883C34.7617 4.29883 35.4668 4.67578 35.9473 5.42969C36.4316 6.18359 36.6738 7.27539 36.6738 8.70508ZM31.9922 8.70508C31.9922 9.95117 32.1387 10.8594 32.4316 11.4297C32.7246 11.9961 33.1914 12.2793 33.832 12.2793C34.4805 12.2793 34.9492 11.9922 35.2383 11.418C35.5312 10.8398 35.6777 9.93555 35.6777 8.70508C35.6777 7.47461 35.5312 6.57422 35.2383 6.00391C34.9492 5.42969 34.4805 5.14258 33.832 5.14258C33.1914 5.14258 32.7246 5.42578 32.4316 5.99219C32.1387 6.55469 31.9922 7.45898 31.9922 8.70508Z" fill="#CFD2DC"/>
<path d="M146.814 290H145.818V282.318H143.105V281.434H149.527V282.318H146.814V290ZM151.59 283.578V287.744C151.59 288.268 151.709 288.658 151.947 288.916C152.186 289.174 152.559 289.303 153.066 289.303C153.738 289.303 154.229 289.119 154.537 288.752C154.85 288.385 155.006 287.785 155.006 286.953V283.578H155.979V290H155.176L155.035 289.139H154.982C154.783 289.455 154.506 289.697 154.15 289.865C153.799 290.033 153.396 290.117 152.943 290.117C152.162 290.117 151.576 289.932 151.186 289.561C150.799 289.189 150.605 288.596 150.605 287.779V283.578H151.59ZM160.76 290.117C159.811 290.117 159.061 289.828 158.51 289.25C157.963 288.672 157.689 287.869 157.689 286.842C157.689 285.807 157.943 284.984 158.451 284.375C158.963 283.766 159.648 283.461 160.508 283.461C161.312 283.461 161.949 283.727 162.418 284.258C162.887 284.785 163.121 285.482 163.121 286.35V286.965H158.697C158.717 287.719 158.906 288.291 159.266 288.682C159.629 289.072 160.139 289.268 160.795 289.268C161.486 289.268 162.17 289.123 162.846 288.834V289.701C162.502 289.85 162.176 289.955 161.867 290.018C161.562 290.084 161.193 290.117 160.76 290.117ZM160.496 284.275C159.98 284.275 159.568 284.443 159.26 284.779C158.955 285.115 158.775 285.58 158.721 286.174H162.078C162.078 285.561 161.941 285.092 161.668 284.768C161.395 284.439 161.004 284.275 160.496 284.275Z" fill="#CFD2DC"/>
<path d="M238.654 290H237.67L235.941 284.264C235.859 284.01 235.768 283.689 235.666 283.303C235.564 282.916 235.512 282.684 235.508 282.605C235.422 283.121 235.285 283.686 235.098 284.299L233.422 290H232.438L230.158 281.434H231.213L232.566 286.725C232.754 287.467 232.891 288.139 232.977 288.74C233.082 288.025 233.238 287.326 233.445 286.643L234.98 281.434H236.035L237.646 286.689C237.834 287.295 237.992 287.979 238.121 288.74C238.195 288.186 238.336 287.51 238.543 286.713L239.891 281.434H240.945L238.654 290ZM244.854 290.117C243.904 290.117 243.154 289.828 242.604 289.25C242.057 288.672 241.783 287.869 241.783 286.842C241.783 285.807 242.037 284.984 242.545 284.375C243.057 283.766 243.742 283.461 244.602 283.461C245.406 283.461 246.043 283.727 246.512 284.258C246.98 284.785 247.215 285.482 247.215 286.35V286.965H242.791C242.811 287.719 243 288.291 243.359 288.682C243.723 289.072 244.232 289.268 244.889 289.268C245.58 289.268 246.264 289.123 246.939 288.834V289.701C246.596 289.85 246.27 289.955 245.961 290.018C245.656 290.084 245.287 290.117 244.854 290.117ZM244.59 284.275C244.074 284.275 243.662 284.443 243.354 284.779C243.049 285.115 242.869 285.58 242.814 286.174H246.172C246.172 285.561 246.035 285.092 245.762 284.768C245.488 284.439 245.098 284.275 244.59 284.275ZM253.25 289.139H253.197C252.748 289.791 252.076 290.117 251.182 290.117C250.342 290.117 249.688 289.83 249.219 289.256C248.754 288.682 248.521 287.865 248.521 286.807C248.521 285.748 248.756 284.926 249.225 284.34C249.693 283.754 250.346 283.461 251.182 283.461C252.053 283.461 252.721 283.777 253.186 284.41H253.262L253.221 283.947L253.197 283.496V280.883H254.17V290H253.379L253.25 289.139ZM251.305 289.303C251.969 289.303 252.449 289.123 252.746 288.764C253.047 288.4 253.197 287.816 253.197 287.012V286.807C253.197 285.896 253.045 285.248 252.74 284.861C252.439 284.471 251.957 284.275 251.293 284.275C250.723 284.275 250.285 284.498 249.98 284.943C249.68 285.385 249.529 286.01 249.529 286.818C249.529 287.639 249.68 288.258 249.98 288.676C250.281 289.094 250.723 289.303 251.305 289.303Z" fill="#CFD2DC"/>
<path d="M320.814 290H319.818V282.318H317.105V281.434H323.527V282.318H320.814V290ZM329.07 290V285.846C329.07 285.322 328.951 284.932 328.713 284.674C328.475 284.416 328.102 284.287 327.594 284.287C326.918 284.287 326.424 284.471 326.111 284.838C325.803 285.205 325.648 285.807 325.648 286.643V290H324.676V280.883H325.648V283.643C325.648 283.975 325.633 284.25 325.602 284.469H325.66C325.852 284.16 326.123 283.918 326.475 283.742C326.83 283.562 327.234 283.473 327.688 283.473C328.473 283.473 329.061 283.66 329.451 284.035C329.846 284.406 330.043 284.998 330.043 285.811V290H329.07ZM332.961 283.578V287.744C332.961 288.268 333.08 288.658 333.318 288.916C333.557 289.174 333.93 289.303 334.438 289.303C335.109 289.303 335.6 289.119 335.908 288.752C336.221 288.385 336.377 287.785 336.377 286.953V283.578H337.35V290H336.547L336.406 289.139H336.354C336.154 289.455 335.877 289.697 335.521 289.865C335.17 290.033 334.768 290.117 334.314 290.117C333.533 290.117 332.947 289.932 332.557 289.561C332.17 289.189 331.977 288.596 331.977 287.779V283.578H332.961Z" fill="#CFD2DC"/>
<path d="M406.174 290H405.178V281.434H409.953V282.318H406.174V285.453H409.725V286.338H406.174V290ZM414.16 283.461C414.445 283.461 414.701 283.484 414.928 283.531L414.793 284.434C414.527 284.375 414.293 284.346 414.09 284.346C413.57 284.346 413.125 284.557 412.754 284.979C412.387 285.4 412.203 285.926 412.203 286.555V290H411.23V283.578H412.033L412.145 284.768H412.191C412.43 284.35 412.717 284.027 413.053 283.801C413.389 283.574 413.758 283.461 414.16 283.461ZM417.102 290H416.129V283.578H417.102V290ZM416.047 281.838C416.047 281.615 416.102 281.453 416.211 281.352C416.32 281.246 416.457 281.193 416.621 281.193C416.777 281.193 416.912 281.246 417.025 281.352C417.139 281.457 417.195 281.619 417.195 281.838C417.195 282.057 417.139 282.221 417.025 282.33C416.912 282.436 416.777 282.488 416.621 282.488C416.457 282.488 416.32 282.436 416.211 282.33C416.102 282.221 416.047 282.057 416.047 281.838Z" fill="#CFD2DC"/>
<path d="M497.012 287.721C497.012 288.475 496.738 289.062 496.191 289.484C495.645 289.906 494.902 290.117 493.965 290.117C492.949 290.117 492.168 289.986 491.621 289.725V288.764C491.973 288.912 492.355 289.029 492.77 289.115C493.184 289.201 493.594 289.244 494 289.244C494.664 289.244 495.164 289.119 495.5 288.869C495.836 288.615 496.004 288.264 496.004 287.814C496.004 287.518 495.943 287.275 495.822 287.088C495.705 286.896 495.506 286.721 495.225 286.561C494.947 286.4 494.523 286.219 493.953 286.016C493.156 285.73 492.586 285.393 492.242 285.002C491.902 284.611 491.732 284.102 491.732 283.473C491.732 282.812 491.98 282.287 492.477 281.896C492.973 281.506 493.629 281.311 494.445 281.311C495.297 281.311 496.08 281.467 496.795 281.779L496.484 282.646C495.777 282.35 495.09 282.201 494.422 282.201C493.895 282.201 493.482 282.314 493.186 282.541C492.889 282.768 492.74 283.082 492.74 283.484C492.74 283.781 492.795 284.025 492.904 284.217C493.014 284.404 493.197 284.578 493.455 284.738C493.717 284.895 494.115 285.068 494.65 285.26C495.549 285.58 496.166 285.924 496.502 286.291C496.842 286.658 497.012 287.135 497.012 287.721ZM502.566 290L502.373 289.086H502.326C502.006 289.488 501.686 289.762 501.365 289.906C501.049 290.047 500.652 290.117 500.176 290.117C499.539 290.117 499.039 289.953 498.676 289.625C498.316 289.297 498.137 288.83 498.137 288.225C498.137 286.928 499.174 286.248 501.248 286.186L502.338 286.15V285.752C502.338 285.248 502.229 284.877 502.01 284.639C501.795 284.396 501.449 284.275 500.973 284.275C500.438 284.275 499.832 284.439 499.156 284.768L498.857 284.023C499.174 283.852 499.52 283.717 499.895 283.619C500.273 283.521 500.652 283.473 501.031 283.473C501.797 283.473 502.363 283.643 502.73 283.982C503.102 284.322 503.287 284.867 503.287 285.617V290H502.566ZM500.369 289.314C500.975 289.314 501.449 289.148 501.793 288.816C502.141 288.484 502.314 288.02 502.314 287.422V286.842L501.342 286.883C500.568 286.91 500.01 287.031 499.666 287.246C499.326 287.457 499.156 287.787 499.156 288.236C499.156 288.588 499.262 288.855 499.473 289.039C499.688 289.223 499.986 289.314 500.369 289.314ZM507.371 289.314C507.543 289.314 507.709 289.303 507.869 289.279C508.029 289.252 508.156 289.225 508.25 289.197V289.941C508.145 289.992 507.988 290.033 507.781 290.064C507.578 290.1 507.395 290.117 507.23 290.117C505.988 290.117 505.367 289.463 505.367 288.154V284.334H504.447V283.865L505.367 283.461L505.777 282.09H506.34V283.578H508.203V284.334H506.34V288.113C506.34 288.5 506.432 288.797 506.615 289.004C506.799 289.211 507.051 289.314 507.371 289.314Z" fill="#CFD2DC"/>
<path d="M584.012 287.721C584.012 288.475 583.738 289.062 583.191 289.484C582.645 289.906 581.902 290.117 580.965 290.117C579.949 290.117 579.168 289.986 578.621 289.725V288.764C578.973 288.912 579.355 289.029 579.77 289.115C580.184 289.201 580.594 289.244 581 289.244C581.664 289.244 582.164 289.119 582.5 288.869C582.836 288.615 583.004 288.264 583.004 287.814C583.004 287.518 582.943 287.275 582.822 287.088C582.705 286.896 582.506 286.721 582.225 286.561C581.947 286.4 581.523 286.219 580.953 286.016C580.156 285.73 579.586 285.393 579.242 285.002C578.902 284.611 578.732 284.102 578.732 283.473C578.732 282.812 578.98 282.287 579.477 281.896C579.973 281.506 580.629 281.311 581.445 281.311C582.297 281.311 583.08 281.467 583.795 281.779L583.484 282.646C582.777 282.35 582.09 282.201 581.422 282.201C580.895 282.201 580.482 282.314 580.186 282.541C579.889 282.768 579.74 283.082 579.74 283.484C579.74 283.781 579.795 284.025 579.904 284.217C580.014 284.404 580.197 284.578 580.455 284.738C580.717 284.895 581.115 285.068 581.65 285.26C582.549 285.58 583.166 285.924 583.502 286.291C583.842 286.658 584.012 287.135 584.012 287.721ZM586.531 283.578V287.744C586.531 288.268 586.65 288.658 586.889 288.916C587.127 289.174 587.5 289.303 588.008 289.303C588.68 289.303 589.17 289.119 589.479 288.752C589.791 288.385 589.947 287.785 589.947 286.953V283.578H590.92V290H590.117L589.977 289.139H589.924C589.725 289.455 589.447 289.697 589.092 289.865C588.74 290.033 588.338 290.117 587.885 290.117C587.104 290.117 586.518 289.932 586.127 289.561C585.74 289.189 585.547 288.596 585.547 287.779V283.578H586.531ZM597.383 290V285.846C597.383 285.322 597.264 284.932 597.025 284.674C596.787 284.416 596.414 284.287 595.906 284.287C595.234 284.287 594.742 284.469 594.43 284.832C594.117 285.195 593.961 285.795 593.961 286.631V290H592.988V283.578H593.779L593.938 284.457H593.984C594.184 284.141 594.463 283.896 594.822 283.725C595.182 283.549 595.582 283.461 596.023 283.461C596.797 283.461 597.379 283.648 597.77 284.023C598.16 284.395 598.355 284.99 598.355 285.811V290H597.383Z" fill="#CFD2DC"/>
<line opacity="0.1" x1="67" y1="252.5" x2="589" y2="252.5" stroke="white"/>
<line opacity="0.1" x1="67" y1="190.5" x2="589" y2="190.5" stroke="white"/>
<line opacity="0.1" x1="67" y1="129.5" x2="589" y2="129.5" stroke="white"/>
<line opacity="0.1" x1="67" y1="68.5" x2="589" y2="68.5" stroke="white"/>
<line opacity="0.1" x1="67" y1="7.5" x2="589" y2="7.49995" stroke="white"/>
<path opacity="0.2" d="M93.4755 178.867L69.4986 152.356L68 253H588V72.8229L542.544 154.811L500.584 37.9658L481.602 114.553L445.137 157.266L412.169 9L337.241 79.6962L316.261 114.553L292.784 48.7666L275.8 139.592L257.318 103.753L215.358 108.171L201.871 50.7304L165.906 167.085L133.937 147.938L126.943 116.026L93.4755 178.867Z" fill="url(#paint0_linear_300_2322)"/>
<path d="M69 152.468L93 179L126.5 116.11L133.5 148.046L165.5 167.208L201.5 50.763L215 108.249L257 103.827L275.5 139.694L292.5 48.7977L316 114.636L337 79.7514L412 9L445 157.382L481.5 114.636L500.5 37.9884L542.5 154.925L588 72.8728" stroke="url(#paint1_linear_300_2322)" stroke-width="2"/>
<defs>
<linearGradient id="paint0_linear_300_2322" x1="68" y1="9" x2="598.888" y2="11.1414" gradientUnits="userSpaceOnUse">
<stop stop-color="#E239F1"/>
<stop offset="1" stop-color="#2296CB"/>
</linearGradient>
<linearGradient id="paint1_linear_300_2322" x1="69" y1="9" x2="598.858" y2="12.0616" gradientUnits="userSpaceOnUse">
<stop stop-color="#E239F1"/>
<stop offset="1" stop-color="#2296CB"/>
</linearGradient>
</defs>
</svg>
