<svg width="736" height="295" viewBox="0 0 736 295" fill="none" xmlns="http://www.w3.org/2000/svg">
<path d="M6.05859 248.361C6.05859 249.631 5.8418 250.574 5.4082 251.191C4.97461 251.809 4.29688 252.117 3.375 252.117C2.46484 252.117 1.79102 251.816 1.35352 251.215C0.916016 250.609 0.689453 249.707 0.673828 248.508V247.061C0.673828 245.807 0.890625 244.875 1.32422 244.266C1.75781 243.656 2.4375 243.352 3.36328 243.352C4.28125 243.352 4.95703 243.646 5.39062 244.236C5.82422 244.822 6.04688 245.729 6.05859 246.955V248.361ZM4.97461 246.879C4.97461 245.961 4.8457 245.293 4.58789 244.875C4.33008 244.453 3.92188 244.242 3.36328 244.242C2.80859 244.242 2.4043 244.451 2.15039 244.869C1.89648 245.287 1.76562 245.93 1.75781 246.797V248.531C1.75781 249.453 1.89062 250.135 2.15625 250.576C2.42578 251.014 2.83203 251.232 3.375 251.232C3.91016 251.232 4.30664 251.025 4.56445 250.611C4.82617 250.197 4.96289 249.545 4.97461 248.654V246.879ZM12.873 248.033L11.8301 249.117V252H10.7051V243.469H11.8301V247.688L15.6211 243.469H16.9805L13.623 247.236L17.2441 252H15.8965L12.873 248.033Z" fill="#ADADAD"/>
<path d="M70.5645 283.469H71.6953V289.51C71.6953 290.326 71.4492 290.965 70.957 291.426C70.4688 291.887 69.8164 292.117 69 292.117C68.1523 292.117 67.4922 291.9 67.0195 291.467C66.5469 291.033 66.3105 290.426 66.3105 289.645H67.4355C67.4355 290.133 67.5684 290.514 67.834 290.787C68.1035 291.061 68.4922 291.197 69 291.197C69.4648 291.197 69.8398 291.051 70.125 290.758C70.4141 290.465 70.5605 290.055 70.5645 289.527V283.469ZM77.3555 292C77.293 291.875 77.2422 291.652 77.2031 291.332C76.6992 291.855 76.0977 292.117 75.3984 292.117C74.7734 292.117 74.2598 291.941 73.8574 291.59C73.459 291.234 73.2598 290.785 73.2598 290.242C73.2598 289.582 73.5098 289.07 74.0098 288.707C74.5137 288.34 75.2207 288.156 76.1309 288.156H77.1855V287.658C77.1855 287.279 77.0723 286.979 76.8457 286.756C76.6191 286.529 76.2852 286.416 75.8438 286.416C75.457 286.416 75.1328 286.514 74.8711 286.709C74.6094 286.904 74.4785 287.141 74.4785 287.418H73.3887C73.3887 287.102 73.5 286.797 73.7227 286.504C73.9492 286.207 74.2539 285.973 74.6367 285.801C75.0234 285.629 75.4473 285.543 75.9082 285.543C76.6387 285.543 77.2109 285.727 77.625 286.094C78.0391 286.457 78.2539 286.959 78.2695 287.6V290.518C78.2695 291.1 78.3438 291.562 78.4922 291.906V292H77.3555ZM75.5566 291.174C75.8965 291.174 76.2188 291.086 76.5234 290.91C76.8281 290.734 77.0488 290.506 77.1855 290.225V288.924H76.3359C75.0078 288.924 74.3438 289.312 74.3438 290.09C74.3438 290.43 74.457 290.695 74.6836 290.887C74.9102 291.078 75.2012 291.174 75.5566 291.174ZM80.9941 285.66L81.0293 286.457C81.5137 285.848 82.1465 285.543 82.9277 285.543C84.2676 285.543 84.9434 286.299 84.9551 287.811V292H83.8711V287.805C83.8672 287.348 83.7617 287.01 83.5547 286.791C83.3516 286.572 83.0332 286.463 82.5996 286.463C82.248 286.463 81.9395 286.557 81.6738 286.744C81.4082 286.932 81.2012 287.178 81.0527 287.482V292H79.9688V285.66H80.9941Z" fill="#ADADAD"/>
<path d="M130.695 288.232H127.115V292H125.99V283.469H131.275V284.395H127.115V287.312H130.695V288.232ZM134.955 292.117C134.096 292.117 133.396 291.836 132.857 291.273C132.318 290.707 132.049 289.951 132.049 289.006V288.807C132.049 288.178 132.168 287.617 132.406 287.125C132.648 286.629 132.984 286.242 133.414 285.965C133.848 285.684 134.316 285.543 134.82 285.543C135.645 285.543 136.285 285.814 136.742 286.357C137.199 286.9 137.428 287.678 137.428 288.689V289.141H133.133C133.148 289.766 133.33 290.271 133.678 290.658C134.029 291.041 134.475 291.232 135.014 291.232C135.396 291.232 135.721 291.154 135.986 290.998C136.252 290.842 136.484 290.635 136.684 290.377L137.346 290.893C136.814 291.709 136.018 292.117 134.955 292.117ZM134.82 286.434C134.383 286.434 134.016 286.594 133.719 286.914C133.422 287.23 133.238 287.676 133.168 288.25H136.344V288.168C136.312 287.617 136.164 287.191 135.898 286.891C135.633 286.586 135.273 286.434 134.82 286.434ZM144.055 288.9C144.055 289.869 143.832 290.648 143.387 291.238C142.941 291.824 142.344 292.117 141.594 292.117C140.793 292.117 140.174 291.834 139.736 291.268L139.684 292H138.688V283H139.771V286.357C140.209 285.814 140.812 285.543 141.582 285.543C142.352 285.543 142.955 285.834 143.393 286.416C143.834 286.998 144.055 287.795 144.055 288.807V288.9ZM142.971 288.777C142.971 288.039 142.828 287.469 142.543 287.066C142.258 286.664 141.848 286.463 141.312 286.463C140.598 286.463 140.084 286.795 139.771 287.459V290.201C140.104 290.865 140.621 291.197 141.324 291.197C141.844 291.197 142.248 290.996 142.537 290.594C142.826 290.191 142.971 289.586 142.971 288.777Z" fill="#ADADAD"/>
<path d="M186.443 283.469L189.232 290.43L192.021 283.469H193.48V292H192.355V288.678L192.461 285.092L189.66 292H188.799L186.004 285.109L186.115 288.678V292H184.99V283.469H186.443ZM199.211 292C199.148 291.875 199.098 291.652 199.059 291.332C198.555 291.855 197.953 292.117 197.254 292.117C196.629 292.117 196.115 291.941 195.713 291.59C195.314 291.234 195.115 290.785 195.115 290.242C195.115 289.582 195.365 289.07 195.865 288.707C196.369 288.34 197.076 288.156 197.986 288.156H199.041V287.658C199.041 287.279 198.928 286.979 198.701 286.756C198.475 286.529 198.141 286.416 197.699 286.416C197.312 286.416 196.988 286.514 196.727 286.709C196.465 286.904 196.334 287.141 196.334 287.418H195.244C195.244 287.102 195.355 286.797 195.578 286.504C195.805 286.207 196.109 285.973 196.492 285.801C196.879 285.629 197.303 285.543 197.764 285.543C198.494 285.543 199.066 285.727 199.48 286.094C199.895 286.457 200.109 286.959 200.125 287.6V290.518C200.125 291.1 200.199 291.562 200.348 291.906V292H199.211ZM197.412 291.174C197.752 291.174 198.074 291.086 198.379 290.91C198.684 290.734 198.904 290.506 199.041 290.225V288.924H198.191C196.863 288.924 196.199 289.312 196.199 290.09C196.199 290.43 196.312 290.695 196.539 290.887C196.766 291.078 197.057 291.174 197.412 291.174ZM204.889 286.633C204.725 286.605 204.547 286.592 204.355 286.592C203.645 286.592 203.162 286.895 202.908 287.5V292H201.824V285.66H202.879L202.896 286.393C203.252 285.826 203.756 285.543 204.408 285.543C204.619 285.543 204.779 285.57 204.889 285.625V286.633Z" fill="#ADADAD"/>
<path d="M248.701 289.773H245.127L244.324 292H243.164L246.422 283.469H247.406L250.67 292H249.516L248.701 289.773ZM245.467 288.848H248.367L246.914 284.857L245.467 288.848ZM257.004 288.9C257.004 289.865 256.783 290.643 256.342 291.232C255.9 291.822 255.303 292.117 254.549 292.117C253.779 292.117 253.174 291.873 252.732 291.385V294.438H251.648V285.66H252.639L252.691 286.363C253.133 285.816 253.746 285.543 254.531 285.543C255.293 285.543 255.895 285.83 256.336 286.404C256.781 286.979 257.004 287.777 257.004 288.801V288.9ZM255.92 288.777C255.92 288.062 255.768 287.498 255.463 287.084C255.158 286.67 254.74 286.463 254.209 286.463C253.553 286.463 253.061 286.754 252.732 287.336V290.365C253.057 290.943 253.553 291.232 254.221 291.232C254.74 291.232 255.152 291.027 255.457 290.617C255.766 290.203 255.92 289.59 255.92 288.777ZM261.451 286.633C261.287 286.605 261.109 286.592 260.918 286.592C260.207 286.592 259.725 286.895 259.471 287.5V292H258.387V285.66H259.441L259.459 286.393C259.814 285.826 260.318 285.543 260.971 285.543C261.182 285.543 261.342 285.57 261.451 285.625V286.633Z" fill="#ADADAD"/>
<path d="M304.443 283.469L307.232 290.43L310.021 283.469H311.48V292H310.355V288.678L310.461 285.092L307.66 292H306.799L304.004 285.109L304.115 288.678V292H302.99V283.469H304.443ZM317.211 292C317.148 291.875 317.098 291.652 317.059 291.332C316.555 291.855 315.953 292.117 315.254 292.117C314.629 292.117 314.115 291.941 313.713 291.59C313.314 291.234 313.115 290.785 313.115 290.242C313.115 289.582 313.365 289.07 313.865 288.707C314.369 288.34 315.076 288.156 315.986 288.156H317.041V287.658C317.041 287.279 316.928 286.979 316.701 286.756C316.475 286.529 316.141 286.416 315.699 286.416C315.312 286.416 314.988 286.514 314.727 286.709C314.465 286.904 314.334 287.141 314.334 287.418H313.244C313.244 287.102 313.355 286.797 313.578 286.504C313.805 286.207 314.109 285.973 314.492 285.801C314.879 285.629 315.303 285.543 315.764 285.543C316.494 285.543 317.066 285.727 317.48 286.094C317.895 286.457 318.109 286.959 318.125 287.6V290.518C318.125 291.1 318.199 291.562 318.348 291.906V292H317.211ZM315.412 291.174C315.752 291.174 316.074 291.086 316.379 290.91C316.684 290.734 316.904 290.506 317.041 290.225V288.924H316.191C314.863 288.924 314.199 289.312 314.199 290.09C314.199 290.43 314.312 290.695 314.539 290.887C314.766 291.078 315.057 291.174 315.412 291.174ZM321.805 290.412L323.281 285.66H324.441L321.893 292.979C321.498 294.033 320.871 294.561 320.012 294.561L319.807 294.543L319.402 294.467V293.588L319.695 293.611C320.062 293.611 320.348 293.537 320.551 293.389C320.758 293.24 320.928 292.969 321.061 292.574L321.301 291.93L319.039 285.66H320.223L321.805 290.412Z" fill="#ADADAD"/>
<path d="M365.564 283.469H366.695V289.51C366.695 290.326 366.449 290.965 365.957 291.426C365.469 291.887 364.816 292.117 364 292.117C363.152 292.117 362.492 291.9 362.02 291.467C361.547 291.033 361.311 290.426 361.311 289.645H362.436C362.436 290.133 362.568 290.514 362.834 290.787C363.104 291.061 363.492 291.197 364 291.197C364.465 291.197 364.84 291.051 365.125 290.758C365.414 290.465 365.561 290.055 365.564 289.527V283.469ZM372.355 291.373C371.934 291.869 371.314 292.117 370.498 292.117C369.822 292.117 369.307 291.922 368.951 291.531C368.6 291.137 368.422 290.555 368.418 289.785V285.66H369.502V289.756C369.502 290.717 369.893 291.197 370.674 291.197C371.502 291.197 372.053 290.889 372.326 290.271V285.66H373.41V292H372.379L372.355 291.373ZM376.088 285.66L376.123 286.457C376.607 285.848 377.24 285.543 378.021 285.543C379.361 285.543 380.037 286.299 380.049 287.811V292H378.965V287.805C378.961 287.348 378.855 287.01 378.648 286.791C378.445 286.572 378.127 286.463 377.693 286.463C377.342 286.463 377.033 286.557 376.768 286.744C376.502 286.932 376.295 287.178 376.146 287.482V292H375.062V285.66H376.088Z" fill="#ADADAD"/>
<path d="M424.564 283.469H425.695V289.51C425.695 290.326 425.449 290.965 424.957 291.426C424.469 291.887 423.816 292.117 423 292.117C422.152 292.117 421.492 291.9 421.02 291.467C420.547 291.033 420.311 290.426 420.311 289.645H421.436C421.436 290.133 421.568 290.514 421.834 290.787C422.104 291.061 422.492 291.197 423 291.197C423.465 291.197 423.84 291.051 424.125 290.758C424.414 290.465 424.561 290.055 424.564 289.527V283.469ZM431.355 291.373C430.934 291.869 430.314 292.117 429.498 292.117C428.822 292.117 428.307 291.922 427.951 291.531C427.6 291.137 427.422 290.555 427.418 289.785V285.66H428.502V289.756C428.502 290.717 428.893 291.197 429.674 291.197C430.502 291.197 431.053 290.889 431.326 290.271V285.66H432.41V292H431.379L431.355 291.373ZM435.24 292H434.156V283H435.24V292Z" fill="#ADADAD"/>
<path d="M484.701 289.773H481.127L480.324 292H479.164L482.422 283.469H483.406L486.67 292H485.516L484.701 289.773ZM481.467 288.848H484.367L482.914 284.857L481.467 288.848ZM491.492 291.373C491.07 291.869 490.451 292.117 489.635 292.117C488.959 292.117 488.443 291.922 488.088 291.531C487.736 291.137 487.559 290.555 487.555 289.785V285.66H488.639V289.756C488.639 290.717 489.029 291.197 489.811 291.197C490.639 291.197 491.189 290.889 491.463 290.271V285.66H492.547V292H491.516L491.492 291.373ZM493.941 288.777C493.941 287.789 494.17 287.004 494.627 286.422C495.084 285.836 495.689 285.543 496.443 285.543C497.217 285.543 497.82 285.816 498.254 286.363L498.307 285.66H499.297V291.848C499.297 292.668 499.053 293.314 498.564 293.787C498.08 294.26 497.428 294.496 496.607 294.496C496.15 294.496 495.703 294.398 495.266 294.203C494.828 294.008 494.494 293.74 494.264 293.4L494.826 292.75C495.291 293.324 495.859 293.611 496.531 293.611C497.059 293.611 497.469 293.463 497.762 293.166C498.059 292.869 498.207 292.451 498.207 291.912V291.367C497.773 291.867 497.182 292.117 496.432 292.117C495.689 292.117 495.088 291.818 494.627 291.221C494.17 290.623 493.941 289.809 493.941 288.777ZM495.031 288.9C495.031 289.615 495.178 290.178 495.471 290.588C495.764 290.994 496.174 291.197 496.701 291.197C497.385 291.197 497.887 290.887 498.207 290.266V287.371C497.875 286.766 497.377 286.463 496.713 286.463C496.186 286.463 495.773 286.668 495.477 287.078C495.18 287.488 495.031 288.096 495.031 288.9Z" fill="#ADADAD"/>
<path d="M541.504 288.197C540.539 287.92 539.836 287.58 539.395 287.178C538.957 286.771 538.738 286.271 538.738 285.678C538.738 285.006 539.006 284.451 539.541 284.014C540.08 283.572 540.779 283.352 541.639 283.352C542.225 283.352 542.746 283.465 543.203 283.691C543.664 283.918 544.02 284.23 544.27 284.629C544.523 285.027 544.65 285.463 544.65 285.936H543.52C543.52 285.42 543.355 285.016 543.027 284.723C542.699 284.426 542.236 284.277 541.639 284.277C541.084 284.277 540.65 284.4 540.338 284.646C540.029 284.889 539.875 285.227 539.875 285.66C539.875 286.008 540.021 286.303 540.314 286.545C540.611 286.783 541.113 287.002 541.82 287.201C542.531 287.4 543.086 287.621 543.484 287.863C543.887 288.102 544.184 288.381 544.375 288.701C544.57 289.021 544.668 289.398 544.668 289.832C544.668 290.523 544.398 291.078 543.859 291.496C543.32 291.91 542.6 292.117 541.697 292.117C541.111 292.117 540.564 292.006 540.057 291.783C539.549 291.557 539.156 291.248 538.879 290.857C538.605 290.467 538.469 290.023 538.469 289.527H539.6C539.6 290.043 539.789 290.451 540.168 290.752C540.551 291.049 541.061 291.197 541.697 291.197C542.291 291.197 542.746 291.076 543.062 290.834C543.379 290.592 543.537 290.262 543.537 289.844C543.537 289.426 543.391 289.104 543.098 288.877C542.805 288.646 542.273 288.42 541.504 288.197ZM548.576 292.117C547.717 292.117 547.018 291.836 546.479 291.273C545.939 290.707 545.67 289.951 545.67 289.006V288.807C545.67 288.178 545.789 287.617 546.027 287.125C546.27 286.629 546.605 286.242 547.035 285.965C547.469 285.684 547.938 285.543 548.441 285.543C549.266 285.543 549.906 285.814 550.363 286.357C550.82 286.9 551.049 287.678 551.049 288.689V289.141H546.754C546.77 289.766 546.951 290.271 547.299 290.658C547.65 291.041 548.096 291.232 548.635 291.232C549.018 291.232 549.342 291.154 549.607 290.998C549.873 290.842 550.105 290.635 550.305 290.377L550.967 290.893C550.436 291.709 549.639 292.117 548.576 292.117ZM548.441 286.434C548.004 286.434 547.637 286.594 547.34 286.914C547.043 287.23 546.859 287.676 546.789 288.25H549.965V288.168C549.934 287.617 549.785 287.191 549.52 286.891C549.254 286.586 548.895 286.434 548.441 286.434ZM557.664 288.9C557.664 289.865 557.443 290.643 557.002 291.232C556.561 291.822 555.963 292.117 555.209 292.117C554.439 292.117 553.834 291.873 553.393 291.385V294.438H552.309V285.66H553.299L553.352 286.363C553.793 285.816 554.406 285.543 555.191 285.543C555.953 285.543 556.555 285.83 556.996 286.404C557.441 286.979 557.664 287.777 557.664 288.801V288.9ZM556.58 288.777C556.58 288.062 556.428 287.498 556.123 287.084C555.818 286.67 555.4 286.463 554.869 286.463C554.213 286.463 553.721 286.754 553.393 287.336V290.365C553.717 290.943 554.213 291.232 554.881 291.232C555.4 291.232 555.812 291.027 556.117 290.617C556.426 290.203 556.58 289.59 556.58 288.777Z" fill="#ADADAD"/>
<path d="M604.553 288.01C604.553 288.846 604.412 289.576 604.131 290.201C603.85 290.822 603.451 291.297 602.936 291.625C602.42 291.953 601.818 292.117 601.131 292.117C600.459 292.117 599.863 291.953 599.344 291.625C598.824 291.293 598.42 290.822 598.131 290.213C597.846 289.6 597.699 288.891 597.691 288.086V287.471C597.691 286.65 597.834 285.926 598.119 285.297C598.404 284.668 598.807 284.188 599.326 283.855C599.85 283.52 600.447 283.352 601.119 283.352C601.803 283.352 602.404 283.518 602.924 283.85C603.447 284.178 603.85 284.656 604.131 285.285C604.412 285.91 604.553 286.639 604.553 287.471V288.01ZM603.434 287.459C603.434 286.447 603.23 285.672 602.824 285.133C602.418 284.59 601.85 284.318 601.119 284.318C600.408 284.318 599.848 284.59 599.438 285.133C599.031 285.672 598.822 286.422 598.811 287.383V288.01C598.811 288.99 599.016 289.762 599.426 290.324C599.84 290.883 600.408 291.162 601.131 291.162C601.857 291.162 602.42 290.898 602.818 290.371C603.217 289.84 603.422 289.08 603.434 288.092V287.459ZM608.613 291.232C609 291.232 609.338 291.115 609.627 290.881C609.916 290.646 610.076 290.354 610.107 290.002H611.133C611.113 290.365 610.988 290.711 610.758 291.039C610.527 291.367 610.219 291.629 609.832 291.824C609.449 292.02 609.043 292.117 608.613 292.117C607.75 292.117 607.062 291.83 606.551 291.256C606.043 290.678 605.789 289.889 605.789 288.889V288.707C605.789 288.09 605.902 287.541 606.129 287.061C606.355 286.58 606.68 286.207 607.102 285.941C607.527 285.676 608.029 285.543 608.607 285.543C609.318 285.543 609.908 285.756 610.377 286.182C610.85 286.607 611.102 287.16 611.133 287.84H610.107C610.076 287.43 609.92 287.094 609.639 286.832C609.361 286.566 609.018 286.434 608.607 286.434C608.057 286.434 607.629 286.633 607.324 287.031C607.023 287.426 606.873 287.998 606.873 288.748V288.953C606.873 289.684 607.023 290.246 607.324 290.641C607.625 291.035 608.055 291.232 608.613 291.232ZM613.822 284.125V285.66H615.006V286.498H613.822V290.43C613.822 290.684 613.875 290.875 613.98 291.004C614.086 291.129 614.266 291.191 614.52 291.191C614.645 291.191 614.816 291.168 615.035 291.121V292C614.75 292.078 614.473 292.117 614.203 292.117C613.719 292.117 613.354 291.971 613.107 291.678C612.861 291.385 612.738 290.969 612.738 290.43V286.498H611.584V285.66H612.738V284.125H613.822Z" fill="#ADADAD"/>
<path d="M663.547 292H662.416L658.121 285.426V292H656.99V283.469H658.121L662.428 290.072V283.469H663.547V292ZM665.088 288.771C665.088 288.15 665.209 287.592 665.451 287.096C665.697 286.6 666.037 286.217 666.471 285.947C666.908 285.678 667.406 285.543 667.965 285.543C668.828 285.543 669.525 285.842 670.057 286.439C670.592 287.037 670.859 287.832 670.859 288.824V288.9C670.859 289.518 670.74 290.072 670.502 290.564C670.268 291.053 669.93 291.434 669.488 291.707C669.051 291.98 668.547 292.117 667.977 292.117C667.117 292.117 666.42 291.818 665.885 291.221C665.354 290.623 665.088 289.832 665.088 288.848V288.771ZM666.178 288.9C666.178 289.604 666.34 290.168 666.664 290.594C666.992 291.02 667.43 291.232 667.977 291.232C668.527 291.232 668.965 291.018 669.289 290.588C669.613 290.154 669.775 289.549 669.775 288.771C669.775 288.076 669.609 287.514 669.277 287.084C668.949 286.65 668.512 286.434 667.965 286.434C667.43 286.434 666.998 286.646 666.67 287.072C666.342 287.498 666.178 288.107 666.178 288.9ZM674.217 290.529L675.787 285.66H676.895L674.621 292H673.795L671.498 285.66H672.605L674.217 290.529Z" fill="#ADADAD"/>
<path d="M715.99 292V283.469H718.398C719.141 283.469 719.797 283.633 720.367 283.961C720.938 284.289 721.377 284.756 721.686 285.361C721.998 285.967 722.156 286.662 722.16 287.447V287.992C722.16 288.797 722.004 289.502 721.691 290.107C721.383 290.713 720.939 291.178 720.361 291.502C719.787 291.826 719.117 291.992 718.352 292H715.99ZM717.115 284.395V291.08H718.299C719.166 291.08 719.84 290.811 720.32 290.271C720.805 289.732 721.047 288.965 721.047 287.969V287.471C721.047 286.502 720.818 285.75 720.361 285.215C719.908 284.676 719.264 284.402 718.428 284.395H717.115ZM726.326 292.117C725.467 292.117 724.768 291.836 724.229 291.273C723.689 290.707 723.42 289.951 723.42 289.006V288.807C723.42 288.178 723.539 287.617 723.777 287.125C724.02 286.629 724.355 286.242 724.785 285.965C725.219 285.684 725.688 285.543 726.191 285.543C727.016 285.543 727.656 285.814 728.113 286.357C728.57 286.9 728.799 287.678 728.799 288.689V289.141H724.504C724.52 289.766 724.701 290.271 725.049 290.658C725.4 291.041 725.846 291.232 726.385 291.232C726.768 291.232 727.092 291.154 727.357 290.998C727.623 290.842 727.855 290.635 728.055 290.377L728.717 290.893C728.186 291.709 727.389 292.117 726.326 292.117ZM726.191 286.434C725.754 286.434 725.387 286.594 725.09 286.914C724.793 287.23 724.609 287.676 724.539 288.25H727.715V288.168C727.684 287.617 727.535 287.191 727.27 286.891C727.004 286.586 726.645 286.434 726.191 286.434ZM732.602 291.232C732.988 291.232 733.326 291.115 733.615 290.881C733.904 290.646 734.064 290.354 734.096 290.002H735.121C735.102 290.365 734.977 290.711 734.746 291.039C734.516 291.367 734.207 291.629 733.82 291.824C733.438 292.02 733.031 292.117 732.602 292.117C731.738 292.117 731.051 291.83 730.539 291.256C730.031 290.678 729.777 289.889 729.777 288.889V288.707C729.777 288.09 729.891 287.541 730.117 287.061C730.344 286.58 730.668 286.207 731.09 285.941C731.516 285.676 732.018 285.543 732.596 285.543C733.307 285.543 733.896 285.756 734.365 286.182C734.838 286.607 735.09 287.16 735.121 287.84H734.096C734.064 287.43 733.908 287.094 733.627 286.832C733.35 286.566 733.006 286.434 732.596 286.434C732.045 286.434 731.617 286.633 731.312 287.031C731.012 287.426 730.861 287.998 730.861 288.748V288.953C730.861 289.684 731.012 290.246 731.312 290.641C731.613 291.035 732.043 291.232 732.602 291.232Z" fill="#ADADAD"/>
<path d="M6.29883 213H0.708984V212.221L3.66211 208.939C4.09961 208.443 4.40039 208.041 4.56445 207.732C4.73242 207.42 4.81641 207.098 4.81641 206.766C4.81641 206.32 4.68164 205.955 4.41211 205.67C4.14258 205.385 3.7832 205.242 3.33398 205.242C2.79492 205.242 2.375 205.396 2.07422 205.705C1.77734 206.01 1.62891 206.436 1.62891 206.982H0.544922C0.544922 206.197 0.796875 205.562 1.30078 205.078C1.80859 204.594 2.48633 204.352 3.33398 204.352C4.12695 204.352 4.75391 204.561 5.21484 204.979C5.67578 205.393 5.90625 205.945 5.90625 206.637C5.90625 207.477 5.37109 208.477 4.30078 209.637L2.01562 212.115H6.29883V213ZM12.7969 209.361C12.7969 210.631 12.5801 211.574 12.1465 212.191C11.7129 212.809 11.0352 213.117 10.1133 213.117C9.20312 213.117 8.5293 212.816 8.0918 212.215C7.6543 211.609 7.42773 210.707 7.41211 209.508V208.061C7.41211 206.807 7.62891 205.875 8.0625 205.266C8.49609 204.656 9.17578 204.352 10.1016 204.352C11.0195 204.352 11.6953 204.646 12.1289 205.236C12.5625 205.822 12.7852 206.729 12.7969 207.955V209.361ZM11.7129 207.879C11.7129 206.961 11.584 206.293 11.3262 205.875C11.0684 205.453 10.6602 205.242 10.1016 205.242C9.54688 205.242 9.14258 205.451 8.88867 205.869C8.63477 206.287 8.50391 206.93 8.49609 207.797V209.531C8.49609 210.453 8.62891 211.135 8.89453 211.576C9.16406 212.014 9.57031 212.232 10.1133 212.232C10.6484 212.232 11.0449 212.025 11.3027 211.611C11.5645 211.197 11.7012 210.545 11.7129 209.654V207.879ZM19.6113 209.033L18.5684 210.117V213H17.4434V204.469H18.5684V208.688L22.3594 204.469H23.7188L20.3613 208.236L23.9824 213H22.6348L19.6113 209.033Z" fill="#ADADAD"/>
<path d="M5.28516 171.135H6.46875V172.02H5.28516V174H4.19531V172.02H0.310547V171.381L4.13086 165.469H5.28516V171.135ZM1.54102 171.135H4.19531V166.951L4.06641 167.186L1.54102 171.135ZM12.7969 170.361C12.7969 171.631 12.5801 172.574 12.1465 173.191C11.7129 173.809 11.0352 174.117 10.1133 174.117C9.20312 174.117 8.5293 173.816 8.0918 173.215C7.6543 172.609 7.42773 171.707 7.41211 170.508V169.061C7.41211 167.807 7.62891 166.875 8.0625 166.266C8.49609 165.656 9.17578 165.352 10.1016 165.352C11.0195 165.352 11.6953 165.646 12.1289 166.236C12.5625 166.822 12.7852 167.729 12.7969 168.955V170.361ZM11.7129 168.879C11.7129 167.961 11.584 167.293 11.3262 166.875C11.0684 166.453 10.6602 166.242 10.1016 166.242C9.54688 166.242 9.14258 166.451 8.88867 166.869C8.63477 167.287 8.50391 167.93 8.49609 168.797V170.531C8.49609 171.453 8.62891 172.135 8.89453 172.576C9.16406 173.014 9.57031 173.232 10.1133 173.232C10.6484 173.232 11.0449 173.025 11.3027 172.611C11.5645 172.197 11.7012 171.545 11.7129 170.654V168.879ZM19.6113 170.033L18.5684 171.117V174H17.4434V165.469H18.5684V169.688L22.3594 165.469H23.7188L20.3613 169.236L23.9824 174H22.6348L19.6113 170.033Z" fill="#ADADAD"/>
<path d="M5.88281 128.695C5.88281 129.121 5.76953 129.5 5.54297 129.832C5.32031 130.164 5.01758 130.424 4.63477 130.611C5.08008 130.803 5.43164 131.082 5.68945 131.449C5.95117 131.816 6.08203 132.232 6.08203 132.697C6.08203 133.436 5.83203 134.023 5.33203 134.461C4.83594 134.898 4.18164 135.117 3.36914 135.117C2.54883 135.117 1.89062 134.898 1.39453 134.461C0.902344 134.02 0.65625 133.432 0.65625 132.697C0.65625 132.236 0.78125 131.82 1.03125 131.449C1.28516 131.078 1.63477 130.797 2.08008 130.605C1.70117 130.418 1.40234 130.158 1.18359 129.826C0.964844 129.494 0.855469 129.117 0.855469 128.695C0.855469 127.977 1.08594 127.406 1.54688 126.984C2.00781 126.562 2.61523 126.352 3.36914 126.352C4.11914 126.352 4.72461 126.562 5.18555 126.984C5.65039 127.406 5.88281 127.977 5.88281 128.695ZM4.99805 132.674C4.99805 132.197 4.8457 131.809 4.54102 131.508C4.24023 131.207 3.8457 131.057 3.35742 131.057C2.86914 131.057 2.47656 131.205 2.17969 131.502C1.88672 131.799 1.74023 132.189 1.74023 132.674C1.74023 133.158 1.88281 133.539 2.16797 133.816C2.45703 134.094 2.85742 134.232 3.36914 134.232C3.87695 134.232 4.27539 134.094 4.56445 133.816C4.85352 133.535 4.99805 133.154 4.99805 132.674ZM3.36914 127.242C2.94336 127.242 2.59766 127.375 2.33203 127.641C2.07031 127.902 1.93945 128.26 1.93945 128.713C1.93945 129.146 2.06836 129.498 2.32617 129.768C2.58789 130.033 2.93555 130.166 3.36914 130.166C3.80273 130.166 4.14844 130.033 4.40625 129.768C4.66797 129.498 4.79883 129.146 4.79883 128.713C4.79883 128.279 4.66406 127.926 4.39453 127.652C4.125 127.379 3.7832 127.242 3.36914 127.242ZM12.7969 131.361C12.7969 132.631 12.5801 133.574 12.1465 134.191C11.7129 134.809 11.0352 135.117 10.1133 135.117C9.20312 135.117 8.5293 134.816 8.0918 134.215C7.6543 133.609 7.42773 132.707 7.41211 131.508V130.061C7.41211 128.807 7.62891 127.875 8.0625 127.266C8.49609 126.656 9.17578 126.352 10.1016 126.352C11.0195 126.352 11.6953 126.646 12.1289 127.236C12.5625 127.822 12.7852 128.729 12.7969 129.955V131.361ZM11.7129 129.879C11.7129 128.961 11.584 128.293 11.3262 127.875C11.0684 127.453 10.6602 127.242 10.1016 127.242C9.54688 127.242 9.14258 127.451 8.88867 127.869C8.63477 128.287 8.50391 128.93 8.49609 129.797V131.531C8.49609 132.453 8.62891 133.135 8.89453 133.576C9.16406 134.014 9.57031 134.232 10.1133 134.232C10.6484 134.232 11.0449 134.025 11.3027 133.611C11.5645 133.197 11.7012 132.545 11.7129 131.654V129.879ZM19.6113 131.033L18.5684 132.117V135H17.4434V126.469H18.5684V130.688L22.3594 126.469H23.7188L20.3613 130.236L23.9824 135H22.6348L19.6113 131.033Z" fill="#ADADAD"/>
<path d="M4.27148 96H3.18164V88.7754L0.996094 89.5781V88.5938L4.10156 87.4277H4.27148V96ZM12.7969 92.3613C12.7969 93.6309 12.5801 94.5742 12.1465 95.1914C11.7129 95.8086 11.0352 96.1172 10.1133 96.1172C9.20312 96.1172 8.5293 95.8164 8.0918 95.2148C7.6543 94.6094 7.42773 93.707 7.41211 92.5078V91.0605C7.41211 89.8066 7.62891 88.875 8.0625 88.2656C8.49609 87.6562 9.17578 87.3516 10.1016 87.3516C11.0195 87.3516 11.6953 87.6465 12.1289 88.2363C12.5625 88.8223 12.7852 89.7285 12.7969 90.9551V92.3613ZM11.7129 90.8789C11.7129 89.9609 11.584 89.293 11.3262 88.875C11.0684 88.4531 10.6602 88.2422 10.1016 88.2422C9.54688 88.2422 9.14258 88.4512 8.88867 88.8691C8.63477 89.2871 8.50391 89.9297 8.49609 90.7969V92.5312C8.49609 93.4531 8.62891 94.1348 8.89453 94.5762C9.16406 95.0137 9.57031 95.2324 10.1133 95.2324C10.6484 95.2324 11.0449 95.0254 11.3027 94.6113C11.5645 94.1973 11.7012 93.5449 11.7129 92.6543V90.8789ZM19.5352 92.3613C19.5352 93.6309 19.3184 94.5742 18.8848 95.1914C18.4512 95.8086 17.7734 96.1172 16.8516 96.1172C15.9414 96.1172 15.2676 95.8164 14.8301 95.2148C14.3926 94.6094 14.166 93.707 14.1504 92.5078V91.0605C14.1504 89.8066 14.3672 88.875 14.8008 88.2656C15.2344 87.6562 15.9141 87.3516 16.8398 87.3516C17.7578 87.3516 18.4336 87.6465 18.8672 88.2363C19.3008 88.8223 19.5234 89.7285 19.5352 90.9551V92.3613ZM18.4512 90.8789C18.4512 89.9609 18.3223 89.293 18.0645 88.875C17.8066 88.4531 17.3984 88.2422 16.8398 88.2422C16.2852 88.2422 15.8809 88.4512 15.627 88.8691C15.373 89.2871 15.2422 89.9297 15.2344 90.7969V92.5312C15.2344 93.4531 15.3672 94.1348 15.6328 94.5762C15.9023 95.0137 16.3086 95.2324 16.8516 95.2324C17.3867 95.2324 17.7832 95.0254 18.041 94.6113C18.3027 94.1973 18.4395 93.5449 18.4512 92.6543V90.8789ZM26.3496 92.0332L25.3066 93.1172V96H24.1816V87.4688H25.3066V91.6875L29.0977 87.4688H30.457L27.0996 91.2363L30.7207 96H29.373L26.3496 92.0332Z" fill="#ADADAD"/>
<path d="M4.27148 57H3.18164V49.7754L0.996094 50.5781V49.5938L4.10156 48.4277H4.27148V57ZM13.0371 57H7.44727V56.2207L10.4004 52.9395C10.8379 52.4434 11.1387 52.041 11.3027 51.7324C11.4707 51.4199 11.5547 51.0977 11.5547 50.7656C11.5547 50.3203 11.4199 49.9551 11.1504 49.6699C10.8809 49.3848 10.5215 49.2422 10.0723 49.2422C9.5332 49.2422 9.11328 49.3965 8.8125 49.7051C8.51562 50.0098 8.36719 50.4355 8.36719 50.9824H7.2832C7.2832 50.1973 7.53516 49.5625 8.03906 49.0781C8.54688 48.5938 9.22461 48.3516 10.0723 48.3516C10.8652 48.3516 11.4922 48.5605 11.9531 48.9785C12.4141 49.3926 12.6445 49.9453 12.6445 50.6367C12.6445 51.4766 12.1094 52.4766 11.0391 53.6367L8.75391 56.1152H13.0371V57ZM19.5352 53.3613C19.5352 54.6309 19.3184 55.5742 18.8848 56.1914C18.4512 56.8086 17.7734 57.1172 16.8516 57.1172C15.9414 57.1172 15.2676 56.8164 14.8301 56.2148C14.3926 55.6094 14.166 54.707 14.1504 53.5078V52.0605C14.1504 50.8066 14.3672 49.875 14.8008 49.2656C15.2344 48.6562 15.9141 48.3516 16.8398 48.3516C17.7578 48.3516 18.4336 48.6465 18.8672 49.2363C19.3008 49.8223 19.5234 50.7285 19.5352 51.9551V53.3613ZM18.4512 51.8789C18.4512 50.9609 18.3223 50.293 18.0645 49.875C17.8066 49.4531 17.3984 49.2422 16.8398 49.2422C16.2852 49.2422 15.8809 49.4512 15.627 49.8691C15.373 50.2871 15.2422 50.9297 15.2344 51.7969V53.5312C15.2344 54.4531 15.3672 55.1348 15.6328 55.5762C15.9023 56.0137 16.3086 56.2324 16.8516 56.2324C17.3867 56.2324 17.7832 56.0254 18.041 55.6113C18.3027 55.1973 18.4395 54.5449 18.4512 53.6543V51.8789ZM26.3496 53.0332L25.3066 54.1172V57H24.1816V48.4688H25.3066V52.6875L29.0977 48.4688H30.457L27.0996 52.2363L30.7207 57H29.373L26.3496 53.0332Z" fill="#ADADAD"/>
<path d="M4.27148 18H3.18164V10.7754L0.996094 11.5781V10.5938L4.10156 9.42773H4.27148V18ZM12.0234 15.1348H13.207V16.0195H12.0234V18H10.9336V16.0195H7.04883V15.3809L10.8691 9.46875H12.0234V15.1348ZM8.2793 15.1348H10.9336V10.9512L10.8047 11.1855L8.2793 15.1348ZM19.5352 14.3613C19.5352 15.6309 19.3184 16.5742 18.8848 17.1914C18.4512 17.8086 17.7734 18.1172 16.8516 18.1172C15.9414 18.1172 15.2676 17.8164 14.8301 17.2148C14.3926 16.6094 14.166 15.707 14.1504 14.5078V13.0605C14.1504 11.8066 14.3672 10.875 14.8008 10.2656C15.2344 9.65625 15.9141 9.35156 16.8398 9.35156C17.7578 9.35156 18.4336 9.64648 18.8672 10.2363C19.3008 10.8223 19.5234 11.7285 19.5352 12.9551V14.3613ZM18.4512 12.8789C18.4512 11.9609 18.3223 11.293 18.0645 10.875C17.8066 10.4531 17.3984 10.2422 16.8398 10.2422C16.2852 10.2422 15.8809 10.4512 15.627 10.8691C15.373 11.2871 15.2422 11.9297 15.2344 12.7969V14.5312C15.2344 15.4531 15.3672 16.1348 15.6328 16.5762C15.9023 17.0137 16.3086 17.2324 16.8516 17.2324C17.3867 17.2324 17.7832 17.0254 18.041 16.6113C18.3027 16.1973 18.4395 15.5449 18.4512 14.6543V12.8789ZM26.3496 14.0332L25.3066 15.1172V18H24.1816V9.46875H25.3066V13.6875L29.0977 9.46875H30.457L27.0996 13.2363L30.7207 18H29.373L26.3496 14.0332Z" fill="#ADADAD"/>
<line x1="66" y1="13.5" x2="727" y2="13.5" stroke="#E6E6E6" stroke-dasharray="2 3"/>
<line x1="66" y1="52.5" x2="727" y2="52.5" stroke="#E6E6E6" stroke-dasharray="2 3"/>
<line x1="66" y1="91.5" x2="727" y2="91.5" stroke="#E6E6E6" stroke-dasharray="2 3"/>
<line x1="66" y1="130.5" x2="727" y2="130.5" stroke="#E6E6E6" stroke-dasharray="2 3"/>
<line x1="66" y1="169.5" x2="727" y2="169.5" stroke="#E6E6E6" stroke-dasharray="2 3"/>
<line x1="66" y1="208.5" x2="727" y2="208.5" stroke="#E6E6E6" stroke-dasharray="2 3"/>
<line x1="66" y1="247.5" x2="727" y2="247.5" stroke="#E6E6E6" stroke-dasharray="2 3"/>
<line x1="77.5" y1="2.18557e-08" x2="77.5" y2="262" stroke="#E5E5E5" stroke-dasharray="2 2"/>
<line x1="136.5" y1="2.18557e-08" x2="136.5" y2="262" stroke="#E5E5E5" stroke-dasharray="2 2"/>
<line x1="195.5" y1="2.18557e-08" x2="195.5" y2="262" stroke="#E5E5E5" stroke-dasharray="2 2"/>
<line x1="254.5" y1="2.18557e-08" x2="254.5" y2="262" stroke="#E5E5E5" stroke-dasharray="2 2"/>
<line x1="313.5" y1="2.18557e-08" x2="313.5" y2="262" stroke="#E5E5E5" stroke-dasharray="2 2"/>
<line x1="372.5" y1="2.18557e-08" x2="372.5" y2="262" stroke="#E5E5E5" stroke-dasharray="2 2"/>
<line x1="431.5" y1="2.18557e-08" x2="431.5" y2="262" stroke="#E5E5E5" stroke-dasharray="2 2"/>
<line x1="490.5" y1="2.18557e-08" x2="490.5" y2="262" stroke="#E5E5E5" stroke-dasharray="2 2"/>
<line x1="549.5" y1="2.18557e-08" x2="549.5" y2="262" stroke="#E5E5E5" stroke-dasharray="2 2"/>
<line x1="608.5" y1="2.18557e-08" x2="608.5" y2="262" stroke="#E5E5E5" stroke-dasharray="2 2"/>
<line x1="667.5" y1="2.18557e-08" x2="667.5" y2="262" stroke="#E5E5E5" stroke-dasharray="2 2"/>
<line x1="726.5" y1="2.18557e-08" x2="726.5" y2="262" stroke="#E5E5E5" stroke-dasharray="2 2"/>
<path opacity="0.1" d="M136.5 169.5L77.5 209V248L726.5 247.5V169.5L667 92L607 130L550.5 90.5L490 131L431.5 14.5L372 53L312 131.5L254.5 91.5L195.5 209L136.5 169.5Z" fill="#C8242F"/>
<path d="M77.5 209L136.5 169.5L195.5 209L254.5 91.5L312 131.5L372 53L431.5 14.5L490 131L550.5 90.5L607 130L667 92L726.5 169.5" stroke="#C8242F"/>
<circle cx="77" cy="208" r="3.5" fill="white" stroke="#C8242F"/>
<circle cx="136" cy="170" r="3.5" fill="white" stroke="#C8242F"/>
<circle cx="196" cy="208" r="3.5" fill="white" stroke="#C8242F"/>
<circle cx="254" cy="92" r="3.5" fill="#C8242F" stroke="#C8242F"/>
<circle cx="313" cy="131" r="3.5" fill="white" stroke="#C8242F"/>
<circle cx="372" cy="53" r="3.5" fill="white" stroke="#C8242F"/>
<circle cx="431" cy="14" r="3.5" fill="white" stroke="#C8242F"/>
<circle cx="490" cy="131" r="3.5" fill="white" stroke="#C8242F"/>
<circle cx="549" cy="92" r="3.5" fill="white" stroke="#C8242F"/>
<circle cx="608" cy="129" r="3.5" fill="white" stroke="#C8242F"/>
<circle cx="667" cy="92" r="3.5" fill="white" stroke="#C8242F"/>
<circle cx="726" cy="170" r="3.5" fill="white" stroke="#C8242F"/>
<rect width="94" height="46" transform="translate(210 34)" fill="#3E3E3E"/>
<path d="M220.059 43.4688L222.25 49.6562L224.43 43.4688H226.738V52H224.975V49.668L225.15 45.6426L222.848 52H221.641L219.344 45.6484L219.52 49.668V52H217.762V43.4688H220.059ZM227.898 48.7715C227.898 48.1426 228.02 47.582 228.262 47.0898C228.504 46.5977 228.852 46.2168 229.305 45.9473C229.762 45.6777 230.291 45.543 230.893 45.543C231.748 45.543 232.445 45.8047 232.984 46.3281C233.527 46.8516 233.83 47.5625 233.893 48.4609L233.904 48.8945C233.904 49.8672 233.633 50.6484 233.09 51.2383C232.547 51.8242 231.818 52.1172 230.904 52.1172C229.99 52.1172 229.26 51.8242 228.713 51.2383C228.17 50.6523 227.898 49.8555 227.898 48.8477V48.7715ZM229.592 48.8945C229.592 49.4961 229.705 49.957 229.932 50.2773C230.158 50.5938 230.482 50.752 230.904 50.752C231.314 50.752 231.635 50.5957 231.865 50.2832C232.096 49.9668 232.211 49.4629 232.211 48.7715C232.211 48.1816 232.096 47.7246 231.865 47.4004C231.635 47.0762 231.311 46.9141 230.893 46.9141C230.479 46.9141 230.158 47.0762 229.932 47.4004C229.705 47.7207 229.592 48.2188 229.592 48.8945ZM236.506 45.6602L236.559 46.3926C237.012 45.8262 237.619 45.543 238.381 45.543C239.053 45.543 239.553 45.7402 239.881 46.1348C240.209 46.5293 240.377 47.1191 240.385 47.9043V52H238.691V47.9453C238.691 47.5859 238.613 47.3262 238.457 47.166C238.301 47.002 238.041 46.9199 237.678 46.9199C237.201 46.9199 236.844 47.123 236.605 47.5293V52H234.912V45.6602H236.506ZM243.701 44.1016V45.6602H244.785V46.9023H243.701V50.0664C243.701 50.3008 243.746 50.4688 243.836 50.5703C243.926 50.6719 244.098 50.7227 244.352 50.7227C244.539 50.7227 244.705 50.709 244.85 50.6816V51.9648C244.518 52.0664 244.176 52.1172 243.824 52.1172C242.637 52.1172 242.031 51.5176 242.008 50.3184V46.9023H241.082V45.6602H242.008V44.1016H243.701ZM247.381 46.3516C247.83 45.8125 248.395 45.543 249.074 45.543C250.449 45.543 251.146 46.3418 251.166 47.9395V52H249.473V47.9863C249.473 47.623 249.395 47.3555 249.238 47.1836C249.082 47.0078 248.822 46.9199 248.459 46.9199C247.963 46.9199 247.604 47.1113 247.381 47.4941V52H245.688V43H247.381V46.3516ZM272.377 49.7734H268.803L268 52H266.84L270.098 43.4688H271.082L274.346 52H273.191L272.377 49.7734ZM269.143 48.8477H272.043L270.59 44.8574L269.143 48.8477ZM280.68 48.9004C280.68 49.8652 280.459 50.6426 280.018 51.2324C279.576 51.8223 278.979 52.1172 278.225 52.1172C277.455 52.1172 276.85 51.873 276.408 51.3848V54.4375H275.324V45.6602H276.314L276.367 46.3633C276.809 45.8164 277.422 45.543 278.207 45.543C278.969 45.543 279.57 45.8301 280.012 46.4043C280.457 46.9785 280.68 47.7773 280.68 48.8008V48.9004ZM279.596 48.7773C279.596 48.0625 279.443 47.498 279.139 47.084C278.834 46.6699 278.416 46.4629 277.885 46.4629C277.229 46.4629 276.736 46.7539 276.408 47.3359V50.3652C276.732 50.9434 277.229 51.2324 277.896 51.2324C278.416 51.2324 278.828 51.0273 279.133 50.6172C279.441 50.2031 279.596 49.5898 279.596 48.7773ZM285.127 46.6328C284.963 46.6055 284.785 46.5918 284.594 46.5918C283.883 46.5918 283.4 46.8945 283.146 47.5V52H282.062V45.6602H283.117L283.135 46.3926C283.49 45.8262 283.994 45.543 284.646 45.543C284.857 45.543 285.018 45.5703 285.127 45.625V46.6328ZM287.307 52H286.223V45.6602H287.307V52ZM286.135 43.9785C286.135 43.8027 286.188 43.6543 286.293 43.5332C286.402 43.4121 286.562 43.3516 286.773 43.3516C286.984 43.3516 287.145 43.4121 287.254 43.5332C287.363 43.6543 287.418 43.8027 287.418 43.9785C287.418 44.1543 287.363 44.3008 287.254 44.418C287.145 44.5352 286.984 44.5938 286.773 44.5938C286.562 44.5938 286.402 44.5352 286.293 44.418C286.188 44.3008 286.135 44.1543 286.135 43.9785ZM290.225 52H289.141V43H290.225V52Z" fill="white"/>
<path d="M221.084 70.248C221.084 70.041 220.98 69.8789 220.773 69.7617C220.57 69.6406 220.242 69.5332 219.789 69.4395C218.281 69.123 217.527 68.4824 217.527 67.5176C217.527 66.9551 217.76 66.4863 218.225 66.1113C218.693 65.7324 219.305 65.543 220.059 65.543C220.863 65.543 221.506 65.7324 221.986 66.1113C222.471 66.4902 222.713 66.9824 222.713 67.5879H221.02C221.02 67.3457 220.941 67.1465 220.785 66.9902C220.629 66.8301 220.385 66.75 220.053 66.75C219.768 66.75 219.547 66.8145 219.391 66.9434C219.234 67.0723 219.156 67.2363 219.156 67.4355C219.156 67.623 219.244 67.7754 219.42 67.8926C219.6 68.0059 219.9 68.1055 220.322 68.1914C220.744 68.2734 221.1 68.3672 221.389 68.4727C222.283 68.8008 222.73 69.3691 222.73 70.1777C222.73 70.7559 222.482 71.2246 221.986 71.584C221.49 71.9395 220.85 72.1172 220.064 72.1172C219.533 72.1172 219.061 72.0234 218.646 71.8359C218.236 71.6445 217.914 71.3848 217.68 71.0566C217.445 70.7246 217.328 70.3672 217.328 69.9844H218.934C218.949 70.2852 219.061 70.5156 219.268 70.6758C219.475 70.8359 219.752 70.916 220.1 70.916C220.424 70.916 220.668 70.8555 220.832 70.7344C221 70.6094 221.084 70.4473 221.084 70.248ZM227.5 72C227.422 71.8477 227.365 71.6582 227.33 71.4316C226.92 71.8887 226.387 72.1172 225.73 72.1172C225.109 72.1172 224.594 71.9375 224.184 71.5781C223.777 71.2188 223.574 70.7656 223.574 70.2188C223.574 69.5469 223.822 69.0312 224.318 68.6719C224.818 68.3125 225.539 68.1309 226.48 68.127H227.26V67.7637C227.26 67.4707 227.184 67.2363 227.031 67.0605C226.883 66.8848 226.646 66.7969 226.322 66.7969C226.037 66.7969 225.812 66.8652 225.648 67.002C225.488 67.1387 225.408 67.3262 225.408 67.5645H223.715C223.715 67.1973 223.828 66.8574 224.055 66.5449C224.281 66.2324 224.602 65.9883 225.016 65.8125C225.43 65.6328 225.895 65.543 226.41 65.543C227.191 65.543 227.811 65.7402 228.268 66.1348C228.729 66.5254 228.959 67.0762 228.959 67.7871V70.5352C228.963 71.1367 229.047 71.5918 229.211 71.9004V72H227.5ZM226.1 70.8223C226.35 70.8223 226.58 70.7676 226.791 70.6582C227.002 70.5449 227.158 70.3945 227.26 70.207V69.1172H226.627C225.779 69.1172 225.328 69.4102 225.273 69.9961L225.268 70.0957C225.268 70.3066 225.342 70.4805 225.49 70.6172C225.639 70.7539 225.842 70.8223 226.1 70.8223ZM232.047 72H230.348V63H232.047V72ZM236.365 72.1172C235.436 72.1172 234.678 71.832 234.092 71.2617C233.51 70.6914 233.219 69.9316 233.219 68.9824V68.8184C233.219 68.1816 233.342 67.6133 233.588 67.1133C233.834 66.6094 234.182 66.2227 234.631 65.9531C235.084 65.6797 235.6 65.543 236.178 65.543C237.045 65.543 237.727 65.8164 238.223 66.3633C238.723 66.9102 238.973 67.6855 238.973 68.6895V69.3809H234.936C234.99 69.7949 235.154 70.127 235.428 70.377C235.705 70.627 236.055 70.752 236.477 70.752C237.129 70.752 237.639 70.5156 238.006 70.043L238.838 70.9746C238.584 71.334 238.24 71.6152 237.807 71.8184C237.373 72.0176 236.893 72.1172 236.365 72.1172ZM236.172 66.9141C235.836 66.9141 235.562 67.0273 235.352 67.2539C235.145 67.4805 235.012 67.8047 234.953 68.2266H237.309V68.0918C237.301 67.7168 237.199 67.4277 237.004 67.2246C236.809 67.0176 236.531 66.9141 236.172 66.9141ZM270.373 72H269.283V64.7754L267.098 65.5781V64.5938L270.203 63.4277H270.373V72ZM278.898 68.3613C278.898 69.6309 278.682 70.5742 278.248 71.1914C277.814 71.8086 277.137 72.1172 276.215 72.1172C275.305 72.1172 274.631 71.8164 274.193 71.2148C273.756 70.6094 273.529 69.707 273.514 68.5078V67.0605C273.514 65.8066 273.73 64.875 274.164 64.2656C274.598 63.6562 275.277 63.3516 276.203 63.3516C277.121 63.3516 277.797 63.6465 278.23 64.2363C278.664 64.8223 278.887 65.7285 278.898 66.9551V68.3613ZM277.814 66.8789C277.814 65.9609 277.686 65.293 277.428 64.875C277.17 64.4531 276.762 64.2422 276.203 64.2422C275.648 64.2422 275.244 64.4512 274.99 64.8691C274.736 65.2871 274.605 65.9297 274.598 66.7969V68.5312C274.598 69.4531 274.73 70.1348 274.996 70.5762C275.266 71.0137 275.672 71.2324 276.215 71.2324C276.75 71.2324 277.146 71.0254 277.404 70.6113C277.666 70.1973 277.803 69.5449 277.814 68.6543V66.8789ZM285.637 68.3613C285.637 69.6309 285.42 70.5742 284.986 71.1914C284.553 71.8086 283.875 72.1172 282.953 72.1172C282.043 72.1172 281.369 71.8164 280.932 71.2148C280.494 70.6094 280.268 69.707 280.252 68.5078V67.0605C280.252 65.8066 280.469 64.875 280.902 64.2656C281.336 63.6562 282.016 63.3516 282.941 63.3516C283.859 63.3516 284.535 63.6465 284.969 64.2363C285.402 64.8223 285.625 65.7285 285.637 66.9551V68.3613ZM284.553 66.8789C284.553 65.9609 284.424 65.293 284.166 64.875C283.908 64.4531 283.5 64.2422 282.941 64.2422C282.387 64.2422 281.982 64.4512 281.729 64.8691C281.475 65.2871 281.344 65.9297 281.336 66.7969V68.5312C281.336 69.4531 281.469 70.1348 281.734 70.5762C282.004 71.0137 282.41 71.2324 282.953 71.2324C283.488 71.2324 283.885 71.0254 284.143 70.6113C284.404 70.1973 284.541 69.5449 284.553 68.6543V66.8789ZM292.451 68.0332L291.408 69.1172V72H290.283V63.4688H291.408V67.6875L295.199 63.4688H296.559L293.201 67.2363L296.822 72H295.475L292.451 68.0332Z" fill="white"/>
</svg>
