<svg width="40" height="40" viewBox="0 0 40 40" fill="none" xmlns="http://www.w3.org/2000/svg">
<path d="M6.25602 13.9077L19.3992 19.8699C19.7829 20.0442 20.2168 20.0442 20.6005 19.8699L33.7436 13.9077C34.6774 13.4839 34.6774 12.0728 33.7436 11.6491L20.601 5.68632C20.4125 5.60015 20.2077 5.55556 20.0004 5.55556C19.7931 5.55556 19.5883 5.60015 19.3998 5.68632L6.25602 11.6485C5.32221 12.0722 5.32221 13.4839 6.25602 13.9077ZM33.7442 18.8887L30.4666 17.4031L21.3464 21.5372C20.9198 21.7307 20.4667 21.8289 20.0001 21.8289C19.5335 21.8289 19.081 21.7307 18.6539 21.5372L9.5342 17.4031L6.25602 18.8887C5.32221 19.3119 5.32221 20.7224 6.25602 21.1456L19.3992 27.1033C19.7829 27.2771 20.2168 27.2771 20.6005 27.1033L33.7442 21.1456C34.678 20.7224 34.678 19.3119 33.7442 18.8887ZM33.7442 26.0995L30.479 24.6195L21.3464 28.7593C20.9198 28.9528 20.4667 29.051 20.0001 29.051C19.5335 29.051 19.081 28.9528 18.6539 28.7593L9.52178 24.6195L6.25602 26.0995C5.32221 26.5227 5.32221 27.9333 6.25602 28.3564L19.3992 34.3141C19.7829 34.4879 20.2168 34.4879 20.6005 34.3141L33.7442 28.3564C34.678 27.9333 34.678 26.5227 33.7442 26.0995Z" fill="#C8242F"/>
</svg>
