<svg width="40" height="40" viewBox="0 0 40 40" fill="none" xmlns="http://www.w3.org/2000/svg">
<path d="M19.9999 36.6667C10.7949 36.6667 3.33325 29.205 3.33325 20C3.33325 10.795 10.7949 3.33333 19.9999 3.33333C29.2049 3.33333 36.6666 10.795 36.6666 20C36.6666 29.205 29.2049 36.6667 19.9999 36.6667ZM14.1666 23.3333V26.6667H18.3333V30H21.6666V26.6667H23.3333C24.4383 26.6667 25.4981 26.2277 26.2795 25.4463C27.0609 24.6649 27.4999 23.6051 27.4999 22.5C27.4999 21.3949 27.0609 20.3351 26.2795 19.5537C25.4981 18.7723 24.4383 18.3333 23.3333 18.3333H16.6666C16.4456 18.3333 16.2336 18.2455 16.0773 18.0893C15.921 17.933 15.8333 17.721 15.8333 17.5C15.8333 17.279 15.921 17.067 16.0773 16.9107C16.2336 16.7545 16.4456 16.6667 16.6666 16.6667H25.8333V13.3333H21.6666V9.99999H18.3333V13.3333H16.6666C15.5615 13.3333 14.5017 13.7723 13.7203 14.5537C12.9389 15.3351 12.4999 16.3949 12.4999 17.5C12.4999 18.6051 12.9389 19.6649 13.7203 20.4463C14.5017 21.2277 15.5615 21.6667 16.6666 21.6667H23.3333C23.5543 21.6667 23.7662 21.7545 23.9225 21.9107C24.0788 22.067 24.1666 22.279 24.1666 22.5C24.1666 22.721 24.0788 22.933 23.9225 23.0893C23.7662 23.2455 23.5543 23.3333 23.3333 23.3333H14.1666Z" fill="#C8242F"/>
</svg>
