<svg width="41" height="44" viewBox="0 0 41 44" fill="none" xmlns="http://www.w3.org/2000/svg">
<path d="M41 32.3619C38.9707 36.2003 35.86 39.3447 32.0613 41.3975C28.2625 43.4504 23.9462 44.3196 19.6584 43.895C15.3706 43.4705 11.3036 41.7714 7.97189 39.0125C4.64022 36.2537 2.19339 32.559 0.940864 28.3958C-0.311671 24.2325 -0.31366 19.7876 0.935147 15.6233C2.18395 11.4589 4.62746 7.76199 7.95671 5.0001C11.2859 2.23821 15.3513 0.535377 19.6388 0.106928C23.9262 -0.32152 28.2433 0.543659 32.0439 2.59306L29.4643 7.47238C26.6193 5.93824 23.3876 5.29059 20.1781 5.61131C16.9686 5.93204 13.9253 7.20674 11.4331 9.27422C8.94089 11.3417 7.11176 14.1091 6.17693 17.2265C5.24211 20.3439 5.2436 23.6712 6.18121 26.7877C7.11883 29.9043 8.9505 32.67 11.4445 34.7352C13.9385 36.8005 16.9829 38.0724 20.1927 38.3901C23.4025 38.7079 26.6336 38.0573 29.4773 36.5206C32.321 34.9839 34.6496 32.63 36.1687 29.7567L41 32.3619Z" fill="white"/>
<path d="M23 33C29.0751 33 34 28.0751 34 22C34 15.9249 29.0751 11 23 11C16.9249 11 12 15.9249 12 22C12 28.0751 16.9249 33 23 33Z" fill="url(#paint0_linear_300_2356)"/>
<defs>
<linearGradient id="paint0_linear_300_2356" x1="12" y1="11" x2="34.4609" y2="11.0425" gradientUnits="userSpaceOnUse">
<stop stop-color="#E239F1"/>
<stop offset="1" stop-color="#2296CB"/>
</linearGradient>
</defs>
</svg>
