<svg width="25" height="25" viewBox="0 0 25 25" fill="none" xmlns="http://www.w3.org/2000/svg">
<path d="M22.115 13.4362V11.2069H20.1919V13.7931C20.192 14.0217 20.2933 14.241 20.4737 14.4026L23.0765 16.7362V18.1034H1.92304V16.7362L4.52588 14.4026C4.70621 14.241 4.80755 14.0217 4.80761 13.7931V10.3448C4.80493 9.13344 5.15885 7.94288 5.83363 6.89338C6.50842 5.84388 7.48016 4.97262 8.65071 4.36759C9.82126 3.76257 11.1492 3.44521 12.5003 3.44757C13.8514 3.44993 15.178 3.77192 16.3459 4.38103V2.45431C15.4306 2.09097 14.4571 1.85938 13.4613 1.7681V0H11.5383V1.76724C9.1677 1.98356 6.9708 2.98027 5.37237 4.56464C3.77395 6.14901 2.88755 8.20848 2.88456 10.3448V13.4362L0.281726 15.7698C0.101393 15.9315 5.44581e-05 16.1507 0 16.3793V18.9655C0 19.1942 0.101303 19.4134 0.281623 19.5751C0.461943 19.7368 0.70651 19.8276 0.961521 19.8276H7.69217V20.6897C7.69217 21.8328 8.19869 22.9292 9.10029 23.7375C10.0019 24.5459 11.2247 25 12.4998 25C13.7748 25 14.9977 24.5459 15.8993 23.7375C16.8009 22.9292 17.3074 21.8328 17.3074 20.6897V19.8276H24.038C24.293 19.8276 24.5376 19.7368 24.7179 19.5751C24.8983 19.4134 24.9996 19.1942 24.9996 18.9655V16.3793C24.9995 16.1507 24.8982 15.9315 24.7178 15.7698L22.115 13.4362ZM15.3843 20.6897C15.3843 21.3756 15.0804 22.0334 14.5395 22.5184C13.9985 23.0034 13.2648 23.2759 12.4998 23.2759C11.7347 23.2759 11.001 23.0034 10.4601 22.5184C9.91912 22.0334 9.61521 21.3756 9.61521 20.6897V19.8276H15.3843V20.6897Z" fill="white"/>
<path d="M21.1537 8.62066C23.2778 8.62066 24.9998 7.07682 24.9998 5.17239C24.9998 3.26796 23.2778 1.72411 21.1537 1.72411C19.0296 1.72411 17.3076 3.26796 17.3076 5.17239C17.3076 7.07682 19.0296 8.62066 21.1537 8.62066Z" fill="#FF3E3E"/>
</svg>
