<svg width="25" height="25" viewBox="0 0 25 25" fill="none" xmlns="http://www.w3.org/2000/svg">
<g clip-path="url(#clip0_270_2253)">
<path d="M14.7604 5.20833L19.7917 10.2396V19.7917H5.20833V5.20833H14.7604ZM14.7604 3.125H5.20833C4.0625 3.125 3.125 4.0625 3.125 5.20833V19.7917C3.125 20.9375 4.0625 21.875 5.20833 21.875H19.7917C20.9375 21.875 21.875 20.9375 21.875 19.7917V10.2396C21.875 9.6875 21.6562 9.15625 21.2604 8.77083L16.2292 3.73958C15.8437 3.34375 15.3125 3.125 14.7604 3.125ZM7.29167 15.625H17.7083V17.7083H7.29167V15.625ZM7.29167 11.4583H17.7083V13.5417H7.29167V11.4583ZM7.29167 7.29167H14.5833V9.375H7.29167V7.29167Z" fill="url(#paint0_linear_270_2253)"/>
</g>
<defs>
<linearGradient id="paint0_linear_270_2253" x1="3.125" y1="3.125" x2="22.2679" y2="3.16123" gradientUnits="userSpaceOnUse">
<stop stop-color="#E239F1"/>
<stop offset="1" stop-color="#2296CB"/>
</linearGradient>
<clipPath id="clip0_270_2253">
<rect width="25" height="25" fill="white"/>
</clipPath>
</defs>
</svg>
