<svg width="7" height="4" viewBox="0 0 7 4" fill="none" xmlns="http://www.w3.org/2000/svg">
<path d="M3.49451 3.99865C3.37789 3.99891 3.26487 3.95243 3.17507 3.86729L0.180311 1.01162C0.0783807 0.914678 0.0142806 0.775372 0.00211205 0.624349C-0.0100565 0.473327 0.0307031 0.322958 0.115424 0.206323C0.200145 0.089688 0.321888 0.0163408 0.45387 0.00241676C0.585852 -0.0115073 0.717262 0.0351323 0.819192 0.132076L3.49451 2.69075L6.16983 0.223457C6.22088 0.176016 6.27963 0.140587 6.34269 0.119209C6.40575 0.0978302 6.47188 0.090923 6.53728 0.0988842C6.60268 0.106845 6.66606 0.129517 6.72377 0.165598C6.78149 0.201679 6.83241 0.250457 6.8736 0.309127C6.91931 0.367852 6.95393 0.436746 6.97528 0.511492C6.99664 0.586238 7.00428 0.665226 6.99772 0.743508C6.99116 0.821789 6.97054 0.897677 6.93716 0.966417C6.90378 1.03516 6.85835 1.09527 6.80372 1.14298L3.80896 3.90156C3.71658 3.97324 3.60587 4.00743 3.49451 3.99865V3.99865Z" fill="white"/>
</svg>
