<svg width="25" height="25" viewBox="0 0 25 25" fill="none" xmlns="http://www.w3.org/2000/svg">
<path d="M13.8021 17.4375C13.8021 18.1562 13.25 18.75 12.5 18.75C11.7708 18.75 11.1875 18.1667 11.1875 17.4375C11.1875 16.6979 11.7708 16.1354 12.5 16.1354C13.2396 16.1354 13.8021 16.7083 13.8021 17.4375ZM12.4896 6.25C10.6458 6.25 9.38542 7.44792 8.91667 8.84375L10.625 9.5625C10.8542 8.86458 11.3958 8.02083 12.5 8.02083C14.1875 8.02083 14.5208 9.60417 13.9271 10.4479C13.3646 11.25 12.3958 11.7917 11.8854 12.6979C11.4792 13.4167 11.5625 14.25 11.5625 14.7604H13.4583C13.4583 13.7917 13.5312 13.5937 13.6875 13.2917C14.0937 12.5417 14.8437 12.1875 15.6354 11.0312C16.3437 9.98958 16.0729 8.57292 15.6146 7.82292C15.0833 6.94792 14.0312 6.25 12.4896 6.25ZM19.7917 5.20833H5.20833V19.7917H19.7917V5.20833ZM19.7917 3.125C20.9375 3.125 21.875 4.0625 21.875 5.20833V19.7917C21.875 20.9375 20.9375 21.875 19.7917 21.875H5.20833C4.0625 21.875 3.125 20.9375 3.125 19.7917V5.20833C3.125 4.0625 4.0625 3.125 5.20833 3.125H19.7917Z" fill="url(#paint0_linear_300_2297)"/>
<defs>
<linearGradient id="paint0_linear_300_2297" x1="3.125" y1="3.125" x2="22.2679" y2="3.16123" gradientUnits="userSpaceOnUse">
<stop stop-color="#E239F1"/>
<stop offset="1" stop-color="#2296CB"/>
</linearGradient>
</defs>
</svg>
