<svg width="25" height="24" viewBox="0 0 25 24" fill="none" xmlns="http://www.w3.org/2000/svg">
<g clip-path="url(#clip0_270_2266)">
<path d="M20.2395 13.9494C20.2812 13.6161 20.3125 13.2827 20.3125 12.9286C20.3125 12.5744 20.2812 12.2411 20.2395 11.9077L22.4375 10.189C22.6354 10.0327 22.6875 9.75149 22.5625 9.52232L20.4791 5.91815C20.3854 5.75149 20.2083 5.65774 20.0208 5.65774C19.9583 5.65774 19.8958 5.66815 19.8437 5.68899L17.25 6.73065C16.7083 6.31399 16.125 5.97024 15.4895 5.70982L15.0937 2.9494C15.0625 2.6994 14.8437 2.5119 14.5833 2.5119H10.4166C10.1562 2.5119 9.93745 2.6994 9.9062 2.9494L9.51037 5.70982C8.87495 5.97024 8.29162 6.3244 7.74995 6.73065L5.1562 5.68899C5.0937 5.66815 5.0312 5.65774 4.9687 5.65774C4.79162 5.65774 4.61454 5.75149 4.52079 5.91815L2.43745 9.52232C2.30204 9.75149 2.36454 10.0327 2.56245 10.189L4.76037 11.9077C4.7187 12.2411 4.68745 12.5848 4.68745 12.9286C4.68745 13.2723 4.7187 13.6161 4.76037 13.9494L2.56245 15.6682C2.36454 15.8244 2.31245 16.1057 2.43745 16.3348L4.52079 19.939C4.61454 20.1057 4.79162 20.1994 4.97912 20.1994C5.04162 20.1994 5.10412 20.189 5.1562 20.1682L7.74995 19.1265C8.29162 19.5432 8.87495 19.8869 9.51037 20.1473L9.9062 22.9077C9.93745 23.1577 10.1562 23.3452 10.4166 23.3452H14.5833C14.8437 23.3452 15.0625 23.1577 15.0937 22.9077L15.4895 20.1473C16.125 19.8869 16.7083 19.5327 17.25 19.1265L19.8437 20.1682C19.9062 20.189 19.9687 20.1994 20.0312 20.1994C20.2083 20.1994 20.3854 20.1057 20.4791 19.939L22.5625 16.3348C22.6875 16.1057 22.6354 15.8244 22.4375 15.6682L20.2395 13.9494ZM18.177 12.1682C18.2187 12.4911 18.2291 12.7098 18.2291 12.9286C18.2291 13.1473 18.2083 13.3765 18.177 13.689L18.0312 14.8661L18.9583 15.5952L20.0833 16.4702L19.3541 17.7307L18.0312 17.1994L16.9479 16.7619L16.0104 17.4702C15.5625 17.8036 15.1354 18.0536 14.7083 18.2307L13.6041 18.6786L13.4375 19.8557L13.2291 21.2619H11.7708L11.5729 19.8557L11.4062 18.6786L10.302 18.2307C9.85412 18.0432 9.43745 17.8036 9.02079 17.4911L8.07287 16.7619L6.9687 17.2098L5.64579 17.7411L4.91662 16.4807L6.04162 15.6057L6.9687 14.8765L6.82287 13.6994C6.79162 13.3765 6.77079 13.1369 6.77079 12.9286C6.77079 12.7202 6.79162 12.4807 6.82287 12.1682L6.9687 10.9911L6.04162 10.2619L4.91662 9.3869L5.64579 8.12649L6.9687 8.65774L8.05204 9.09524L8.98954 8.3869C9.43745 8.05357 9.86454 7.80357 10.2916 7.62649L11.3958 7.17857L11.5625 6.00149L11.7708 4.59524H13.2187L13.4166 6.00149L13.5833 7.17857L14.6875 7.62649C15.1354 7.81399 15.552 8.05357 15.9687 8.36607L16.9166 9.09524L18.0208 8.64732L19.3437 8.11607L20.0729 9.37649L18.9583 10.2619L18.0312 10.9911L18.177 12.1682ZM12.5 8.7619C10.1979 8.7619 8.33329 10.6265 8.33329 12.9286C8.33329 15.2307 10.1979 17.0952 12.5 17.0952C14.802 17.0952 16.6666 15.2307 16.6666 12.9286C16.6666 10.6265 14.802 8.7619 12.5 8.7619ZM12.5 15.0119C11.3541 15.0119 10.4166 14.0744 10.4166 12.9286C10.4166 11.7827 11.3541 10.8452 12.5 10.8452C13.6458 10.8452 14.5833 11.7827 14.5833 12.9286C14.5833 14.0744 13.6458 15.0119 12.5 15.0119Z" fill="url(#paint0_linear_270_2266)"/>
</g>
<defs>
<linearGradient id="paint0_linear_270_2266" x1="2.36523" y1="2.5119" x2="23.0547" y2="2.54999" gradientUnits="userSpaceOnUse">
<stop stop-color="#E239F1"/>
<stop offset="1" stop-color="#2296CB"/>
</linearGradient>
<clipPath id="clip0_270_2266">
<rect width="25" height="25" fill="white" transform="translate(0 0.428589)"/>
</clipPath>
</defs>
</svg>
