<svg width="26" height="25" viewBox="0 0 26 25" fill="none" xmlns="http://www.w3.org/2000/svg">
<g clip-path="url(#clip0_300_2270)">
<g clip-path="url(#clip1_300_2270)">
<path d="M20.7395 14.9494C20.7812 14.6161 20.8125 14.2827 20.8125 13.9286C20.8125 13.5744 20.7812 13.2411 20.7395 12.9077L22.9375 11.189C23.1354 11.0327 23.1875 10.7515 23.0625 10.5223L20.9791 6.91815C20.8854 6.75149 20.7083 6.65774 20.5208 6.65774C20.4583 6.65774 20.3958 6.66815 20.3437 6.68899L17.75 7.73065C17.2083 7.31399 16.625 6.97024 15.9895 6.70982L15.5937 3.9494C15.5625 3.6994 15.3437 3.5119 15.0833 3.5119H10.9166C10.6562 3.5119 10.4375 3.6994 10.4062 3.9494L10.0104 6.70982C9.37495 6.97024 8.79162 7.3244 8.24995 7.73065L5.6562 6.68899C5.5937 6.66815 5.5312 6.65774 5.4687 6.65774C5.29162 6.65774 5.11454 6.75149 5.02079 6.91815L2.93745 10.5223C2.80204 10.7515 2.86454 11.0327 3.06245 11.189L5.26037 12.9077C5.21871 13.2411 5.18745 13.5848 5.18745 13.9286C5.18745 14.2723 5.21871 14.6161 5.26037 14.9494L3.06245 16.6682C2.86454 16.8244 2.81245 17.1057 2.93745 17.3348L5.02079 20.939C5.11454 21.1057 5.29162 21.1994 5.47912 21.1994C5.54162 21.1994 5.60412 21.189 5.6562 21.1682L8.24995 20.1265C8.79162 20.5432 9.37495 20.8869 10.0104 21.1473L10.4062 23.9077C10.4375 24.1577 10.6562 24.3452 10.9166 24.3452H15.0833C15.3437 24.3452 15.5625 24.1577 15.5937 23.9077L15.9895 21.1473C16.625 20.8869 17.2083 20.5327 17.75 20.1265L20.3437 21.1682C20.4062 21.189 20.4687 21.1994 20.5312 21.1994C20.7083 21.1994 20.8854 21.1057 20.9791 20.939L23.0625 17.3348C23.1875 17.1057 23.1354 16.8244 22.9375 16.6682L20.7395 14.9494V14.9494ZM18.677 13.1682C18.7187 13.4911 18.7291 13.7098 18.7291 13.9286C18.7291 14.1473 18.7083 14.3765 18.677 14.689L18.5312 15.8661L19.4583 16.5952L20.5833 17.4702L19.8541 18.7307L18.5312 18.1994L17.4479 17.7619L16.5104 18.4702C16.0625 18.8036 15.6354 19.0536 15.2083 19.2307L14.1041 19.6786L13.9375 20.8557L13.7291 22.2619H12.2708L12.0729 20.8557L11.9062 19.6786L10.802 19.2307C10.3541 19.0432 9.93745 18.8036 9.52079 18.4911L8.57287 17.7619L7.4687 18.2098L6.14579 18.7411L5.41662 17.4807L6.54162 16.6057L7.4687 15.8765L7.32287 14.6994C7.29162 14.3765 7.27079 14.1369 7.27079 13.9286C7.27079 13.7202 7.29162 13.4807 7.32287 13.1682L7.4687 11.9911L6.54162 11.2619L5.41662 10.3869L6.14579 9.12649L7.4687 9.65774L8.55204 10.0952L9.48954 9.3869C9.93745 9.05357 10.3645 8.80357 10.7916 8.62649L11.8958 8.17857L12.0625 7.00149L12.2708 5.59524H13.7187L13.9166 7.00149L14.0833 8.17857L15.1875 8.62649C15.6354 8.81399 16.052 9.05357 16.4687 9.36607L17.4166 10.0952L18.5208 9.64732L19.8437 9.11607L20.5729 10.3765L19.4583 11.2619L18.5312 11.9911L18.677 13.1682ZM13 9.7619C10.6979 9.7619 8.83329 11.6265 8.83329 13.9286C8.83329 16.2307 10.6979 18.0952 13 18.0952C15.302 18.0952 17.1666 16.2307 17.1666 13.9286C17.1666 11.6265 15.302 9.7619 13 9.7619ZM13 16.0119C11.8541 16.0119 10.9166 15.0744 10.9166 13.9286C10.9166 12.7827 11.8541 11.8452 13 11.8452C14.1458 11.8452 15.0833 12.7827 15.0833 13.9286C15.0833 15.0744 14.1458 16.0119 13 16.0119Z" fill="#CFD2DC"/>
</g>
</g>
<defs>
<clipPath id="clip0_300_2270">
<rect width="25" height="25" fill="white" transform="translate(0.5)"/>
</clipPath>
<clipPath id="clip1_300_2270">
<rect width="25" height="25" fill="white" transform="translate(0.5 1.42859)"/>
</clipPath>
</defs>
</svg>
