<svg width="20" height="21" viewBox="0 0 20 21" fill="none" xmlns="http://www.w3.org/2000/svg">
<path d="M7.8125 6.70509H9.25586V13.3125C9.25586 13.3985 9.32617 13.4688 9.41211 13.4688H10.584C10.6699 13.4688 10.7402 13.3985 10.7402 13.3125V6.70509H12.1875C12.3184 6.70509 12.3906 6.5547 12.3105 6.45314L10.123 3.68361C10.1084 3.66493 10.0898 3.64983 10.0684 3.63944C10.0471 3.62906 10.0237 3.62366 10 3.62366C9.97629 3.62366 9.95288 3.62906 9.93156 3.63944C9.91024 3.64983 9.89157 3.66493 9.87695 3.68361L7.68945 6.45119C7.60938 6.5547 7.68164 6.70509 7.8125 6.70509V6.70509ZM17.1484 12.7266H15.9766C15.8906 12.7266 15.8203 12.7969 15.8203 12.8828V15.8906H4.17969V12.8828C4.17969 12.7969 4.10938 12.7266 4.02344 12.7266H2.85156C2.76562 12.7266 2.69531 12.7969 2.69531 12.8828V16.75C2.69531 17.0957 2.97461 17.375 3.32031 17.375H16.6797C17.0254 17.375 17.3047 17.0957 17.3047 16.75V12.8828C17.3047 12.7969 17.2344 12.7266 17.1484 12.7266Z" fill="#CFD2DC"/>
</svg>
