<svg width="20" height="21" viewBox="0 0 20 21" fill="none" xmlns="http://www.w3.org/2000/svg">
<path d="M17.2891 9.2168L17.2852 9.20117L15.0938 3.63281C14.9962 3.31836 14.7051 3.10156 14.3751 3.10156H5.49225C5.16022 3.10156 4.8653 3.32227 4.77155 3.64063L2.72272 9.15234L2.71686 9.16602L2.71296 9.18164C2.68757 9.27734 2.67975 9.375 2.69342 9.4707C2.69147 9.50195 2.68952 9.5332 2.68952 9.56445V16.7109C2.69003 17.0257 2.81531 17.3275 3.0379 17.5501C3.26049 17.7726 3.56223 17.8979 3.87702 17.8984H16.127C16.7813 17.8984 17.3145 17.3652 17.3165 16.7109V9.56445C17.3165 9.53906 17.3165 9.51367 17.3145 9.49219C17.3223 9.39648 17.3145 9.30469 17.2891 9.2168ZM11.5118 8.37695L11.5059 8.68359C11.4903 9.56055 10.8848 10.1504 10.0001 10.1504C9.56842 10.1504 9.19733 10.0117 8.92975 9.74805C8.66217 9.48437 8.51569 9.11719 8.50788 8.68359L8.50202 8.37695H4.48249L6.03522 4.60156H13.8321L15.4278 8.37695H11.5118V8.37695ZM4.18756 9.87695H7.25983C7.73444 10.9922 8.74421 11.6504 10.002 11.6504C10.6602 11.6504 11.2715 11.4668 11.7657 11.1191C12.1993 10.8145 12.5372 10.3887 12.7559 9.87695H15.8126V16.3984H4.18756V9.87695V9.87695Z" fill="#C8242F"/>
</svg>
