<svg width="20" height="21" viewBox="0 0 20 21" fill="none" xmlns="http://www.w3.org/2000/svg">
<path d="M18.5669 12.5581L16.6919 10.6831C16.5747 10.5659 16.4157 10.5001 16.25 10.5001C16.0843 10.5001 15.9253 10.5659 15.8081 10.6831L10 16.4912V19.25H12.7587L18.5669 13.4419C18.684 13.3247 18.7499 13.1657 18.7499 13C18.7499 12.8343 18.684 12.6753 18.5669 12.5581ZM12.2413 18H11.25V17.0087L14.375 13.8837L15.3663 14.875L12.2413 18ZM16.25 13.9912L15.2587 13L16.25 12.0087L17.2413 13L16.25 13.9912Z" fill="#C8242F"/>
<path d="M12.5 8.625V7.375H11.1612C11.103 7.15129 11.0136 6.9369 10.8956 6.73812L11.8438 5.79L10.96 4.90625L10.0119 5.85438C9.81309 5.73641 9.5987 5.64699 9.375 5.58875V4.25H8.125V5.58875C7.9013 5.64699 7.68691 5.73641 7.48812 5.85438L6.54 4.90625L5.65625 5.79L6.60438 6.73812C6.48638 6.9369 6.39696 7.15129 6.33875 7.375H5V8.625H6.33875C6.39696 8.84871 6.48638 9.0631 6.60438 9.26188L5.65625 10.21L6.54 11.0938L7.48812 10.1456C7.68691 10.2636 7.9013 10.353 8.125 10.4112V11.75H9.375V10.4112C9.5987 10.353 9.81309 10.2636 10.0119 10.1456L10.96 11.0938L11.8438 10.21L10.8956 9.26188C11.0136 9.0631 11.103 8.84871 11.1612 8.625H12.5ZM8.75 9.25C8.50277 9.25 8.2611 9.17669 8.05554 9.03934C7.84998 8.90199 7.68976 8.70676 7.59515 8.47835C7.50054 8.24995 7.47579 7.99861 7.52402 7.75614C7.57225 7.51366 7.6913 7.29093 7.86612 7.11612C8.04093 6.9413 8.26366 6.82225 8.50614 6.77402C8.74861 6.72579 8.99995 6.75054 9.22835 6.84515C9.45676 6.93976 9.65199 7.09998 9.78934 7.30554C9.92669 7.5111 10 7.75277 10 8C9.99967 8.33142 9.86787 8.64917 9.63352 8.88352C9.39917 9.11787 9.08142 9.24967 8.75 9.25Z" fill="#C8242F"/>
<path d="M7.5 19.25H3.75C3.41858 19.2497 3.10083 19.1179 2.86648 18.8835C2.63213 18.6492 2.50033 18.3314 2.5 18V3C2.50033 2.66858 2.63213 2.35083 2.86648 2.11648C3.10083 1.88213 3.41858 1.75033 3.75 1.75H13.75C14.0814 1.75033 14.3992 1.88213 14.6335 2.11648C14.8679 2.35083 14.9997 2.66858 15 3V9.25H13.75V3H3.75V18H7.5V19.25Z" fill="#C8242F"/>
</svg>
