<svg width="26" height="26" viewBox="0 0 26 26" fill="none" xmlns="http://www.w3.org/2000/svg">
<path d="M13 24.7578C13.455 24.7473 13.8916 24.5763 14.2326 24.2749C14.5736 23.9736 14.797 23.5613 14.8633 23.1111H11.0645C11.1327 23.5736 11.3666 23.9955 11.7226 24.2984C12.0787 24.6013 12.5326 24.7645 13 24.7578V24.7578Z" fill="#3E3E3E"/>
<path d="M23.4793 20.0994C22.7829 19.4786 22.1731 18.7668 21.6665 17.9833C21.1135 16.9018 20.782 15.7208 20.6915 14.5094V10.9417C20.6886 10.5083 20.6499 10.0759 20.576 9.64889C20.0075 9.53526 19.4612 9.33039 18.9582 9.04222C19.1499 9.65961 19.2473 10.3024 19.2471 10.9489V14.5167C19.3356 15.9944 19.7421 17.4355 20.4387 18.7417C20.9374 19.5318 21.529 20.2592 22.201 20.9083H3.70486C4.37682 20.2592 4.96846 19.5318 5.46708 18.7417C6.16375 17.4355 6.57023 15.9944 6.65875 14.5167V10.9417C6.65495 10.1058 6.81605 9.27745 7.13284 8.50396C7.44964 7.73048 7.91589 7.02707 8.5049 6.43403C9.09392 5.84099 9.79413 5.36996 10.5654 5.04791C11.3368 4.72585 12.164 4.55911 12.9999 4.55722C14.2231 4.5582 15.419 4.91996 16.4376 5.59722C16.3253 5.18482 16.2623 4.76057 16.2499 4.33333V3.87833C15.4958 3.50737 14.6856 3.26335 13.8521 3.15611V2.24611C13.8521 1.99039 13.7505 1.74515 13.5697 1.56434C13.3889 1.38352 13.1436 1.28194 12.8879 1.28194C12.6322 1.28194 12.387 1.38352 12.2061 1.56434C12.0253 1.74515 11.9237 1.99039 11.9237 2.24611V3.19222C10.0573 3.45551 8.34916 4.38514 7.11463 5.8095C5.8801 7.23386 5.20255 9.05676 5.20708 10.9417V14.5094C5.11663 15.7208 4.78514 16.9018 4.23208 17.9833C3.73438 18.765 3.13444 19.4767 2.44819 20.0994C2.37115 20.1671 2.30941 20.2504 2.26707 20.3438C2.22473 20.4372 2.20277 20.5386 2.20264 20.6411V21.6233C2.20264 21.8149 2.27873 21.9986 2.41417 22.134C2.54961 22.2695 2.73331 22.3456 2.92486 22.3456H23.0026C23.1942 22.3456 23.3779 22.2695 23.5133 22.134C23.6488 21.9986 23.7249 21.8149 23.7249 21.6233V20.6411C23.7247 20.5386 23.7028 20.4372 23.6604 20.3438C23.6181 20.2504 23.5563 20.1671 23.4793 20.0994V20.0994Z" fill="#3E3E3E"/>
<path d="M21.6668 7.94444C23.6611 7.94444 25.2779 6.32769 25.2779 4.33333C25.2779 2.33897 23.6611 0.722221 21.6668 0.722221C19.6724 0.722221 18.0557 2.33897 18.0557 4.33333C18.0557 6.32769 19.6724 7.94444 21.6668 7.94444Z" fill="#C8242F"/>
</svg>
