<svg width="198" height="201" viewBox="0 0 198 201" fill="none" xmlns="http://www.w3.org/2000/svg">
<path d="M197.229 117.929C199.981 96.4433 195.227 74.6666 183.772 56.2819C172.317 37.8972 154.864 24.0327 134.365 17.0333L126.468 40.1622C141.637 45.3418 154.552 55.6014 163.029 69.2061C171.505 82.8108 175.023 98.9256 172.987 114.825L197.229 117.929Z" fill="#EBC844"/>
<path d="M138.552 193.406C153.27 187.587 166.28 178.147 176.376 165.96C186.473 153.773 193.329 139.233 196.309 123.69L172.306 119.088C170.101 130.59 165.028 141.349 157.556 150.368C150.085 159.386 140.457 166.372 129.566 170.678L138.552 193.406Z" fill="#A2B86C"/>
<path d="M25.1452 158.17C36.5024 175.667 53.3567 188.889 73.0539 195.754C92.7512 202.619 114.172 202.737 133.944 196.09L126.156 172.924C111.525 177.843 95.6735 177.755 81.0975 172.675C66.5215 167.595 54.0494 157.811 45.645 144.864L25.1452 158.17Z" fill="#F16C20"/>
<path d="M13.4086 153.543C3.41023 136.021 -1.16776 115.928 0.253499 95.8045C1.67476 75.6809 9.03143 56.4307 21.3932 40.4882C33.755 24.5457 50.5667 12.6269 69.7023 6.23899C88.838 -0.148897 109.438 -0.71895 128.898 4.60091L118.559 42.4191C106.579 39.144 93.8971 39.495 82.1167 43.4275C70.3362 47.3601 59.9865 54.6976 52.3762 64.5123C44.7659 74.327 40.2369 86.178 39.362 98.5666C38.487 110.955 41.3054 123.325 47.4606 134.112L13.4086 153.543Z" fill="#C8242F"/>
</svg>
