<svg width="17" height="17" viewBox="0 0 17 17" fill="none" xmlns="http://www.w3.org/2000/svg">
<path d="M7.33341 14C8.81256 13.9997 10.2491 13.5045 11.4142 12.5933L15.0776 16.2567L16.2559 15.0783L12.5926 11.415C13.5042 10.2497 13.9997 8.81287 14.0001 7.33333C14.0001 3.6575 11.0092 0.666668 7.33341 0.666668C3.65758 0.666668 0.666748 3.6575 0.666748 7.33333C0.666748 11.0092 3.65758 14 7.33341 14ZM7.33341 2.33333C10.0909 2.33333 12.3334 4.57583 12.3334 7.33333C12.3334 10.0908 10.0909 12.3333 7.33341 12.3333C4.57591 12.3333 2.33341 10.0908 2.33341 7.33333C2.33341 4.57583 4.57591 2.33333 7.33341 2.33333Z" fill="black"/>
</svg>
