<svg width="12" height="6" viewBox="0 0 12 6" fill="none" xmlns="http://www.w3.org/2000/svg">
<path d="M5.9999 5.83334C5.80519 5.83372 5.6165 5.76591 5.46657 5.64167L0.466571 1.47501C0.29639 1.33356 0.18937 1.1303 0.169054 0.909942C0.148737 0.689587 0.216789 0.470186 0.358238 0.300006C0.499686 0.129825 0.702946 0.0228051 0.923301 0.00248867C1.14366 -0.0178278 1.36306 0.0502234 1.53324 0.191672L5.9999 3.92501L10.4666 0.325006C10.5518 0.255785 10.6499 0.204091 10.7552 0.172898C10.8605 0.141705 10.9709 0.131627 11.0801 0.143243C11.1892 0.154859 11.2951 0.18794 11.3914 0.240585C11.4878 0.293229 11.5728 0.3644 11.6416 0.450006C11.7179 0.53569 11.7757 0.636212 11.8113 0.745274C11.847 0.854335 11.8598 0.969586 11.8488 1.08381C11.8379 1.19802 11.8034 1.30875 11.7477 1.40905C11.692 1.50935 11.6161 1.59705 11.5249 1.66667L6.5249 5.69167C6.37067 5.79627 6.18582 5.84615 5.9999 5.83334Z" fill="#B2B2B2"/>
</svg>
