<svg width="11" height="7" viewBox="0 0 11 7" fill="none" xmlns="http://www.w3.org/2000/svg">
<path d="M5.50024 6.33334C5.33473 6.33372 5.17434 6.26591 5.0469 6.14167L0.796903 1.97501C0.652249 1.83356 0.561282 1.6303 0.544013 1.40994C0.526744 1.18959 0.584588 0.970186 0.704819 0.800006C0.825051 0.629825 0.997821 0.522805 1.18512 0.502489C1.37243 0.482172 1.55892 0.550223 1.70357 0.691672L5.50024 4.42501L9.2969 0.825006C9.36936 0.755785 9.45272 0.704091 9.54221 0.672898C9.6317 0.641705 9.72555 0.631627 9.81836 0.643243C9.91117 0.654859 10.0011 0.68794 10.083 0.740585C10.1649 0.793229 10.2372 0.8644 10.2957 0.950006C10.3605 1.03569 10.4096 1.13621 10.44 1.24527C10.4703 1.35434 10.4811 1.46959 10.4718 1.58381C10.4625 1.69802 10.4332 1.80875 10.3859 1.90905C10.3385 2.00935 10.274 2.09705 10.1965 2.16667L5.94649 6.19167C5.81538 6.29627 5.65826 6.34615 5.50024 6.33334Z" fill="#ADADAD"/>
</svg>
