<svg width="20" height="21" viewBox="0 0 20 21" fill="none" xmlns="http://www.w3.org/2000/svg">
<path d="M18.0625 12.7207L16.7832 11.627C16.8438 11.2559 16.875 10.877 16.875 10.498C16.875 10.1191 16.8438 9.74023 16.7832 9.36914L18.0625 8.27539C18.159 8.19279 18.2281 8.08277 18.2605 7.95996C18.293 7.83715 18.2872 7.70738 18.2441 7.58789L18.2266 7.53711C17.8744 6.55279 17.347 5.6403 16.6699 4.84375L16.6348 4.80273C16.5526 4.70616 16.4432 4.63673 16.3208 4.60361C16.1984 4.57049 16.0689 4.57522 15.9492 4.61719L14.3613 5.18164C13.7754 4.70117 13.1211 4.32227 12.4141 4.05664L12.1074 2.39648C12.0843 2.27157 12.0237 2.15665 11.9337 2.06699C11.8437 1.97733 11.7285 1.91718 11.6035 1.89453L11.5508 1.88477C10.5332 1.70117 9.46289 1.70117 8.44532 1.88477L8.39258 1.89453C8.26758 1.91718 8.15242 1.97733 8.06241 2.06699C7.97241 2.15665 7.91181 2.27157 7.88868 2.39648L7.58008 4.06445C6.87869 4.33013 6.22552 4.70884 5.64649 5.18555L4.04688 4.61719C3.92728 4.57489 3.79764 4.56998 3.67519 4.60312C3.55274 4.63627 3.44327 4.70589 3.36133 4.80273L3.32618 4.84375C2.6499 5.64087 2.12261 6.5532 1.76954 7.53711L1.75196 7.58789C1.66407 7.83203 1.73633 8.10547 1.9336 8.27539L3.22852 9.38086C3.16797 9.74805 3.13868 10.123 3.13868 10.4961C3.13868 10.8711 3.16797 11.2461 3.22852 11.6113L1.9336 12.7168C1.8371 12.7994 1.76804 12.9094 1.7356 13.0322C1.70315 13.155 1.70886 13.2848 1.75196 13.4043L1.76954 13.4551C2.12305 14.4395 2.64649 15.3477 3.32618 16.1484L3.36133 16.1895C3.44347 16.286 3.55294 16.3555 3.67532 16.3886C3.7977 16.4217 3.92724 16.417 4.04688 16.375L5.64649 15.8066C6.22852 16.2852 6.87891 16.6641 7.58008 16.9277L7.88868 18.5957C7.91181 18.7206 7.97241 18.8355 8.06241 18.9252C8.15242 19.0149 8.26758 19.075 8.39258 19.0977L8.44532 19.1074C9.47224 19.292 10.5239 19.292 11.5508 19.1074L11.6035 19.0977C11.7285 19.075 11.8437 19.0149 11.9337 18.9252C12.0237 18.8355 12.0843 18.7206 12.1074 18.5957L12.4141 16.9355C13.1208 16.6706 13.7788 16.2905 14.3613 15.8105L15.9492 16.375C16.0688 16.4173 16.1985 16.4222 16.3209 16.3891C16.4434 16.3559 16.5528 16.2863 16.6348 16.1895L16.6699 16.1484C17.3496 15.3457 17.8731 14.4395 18.2266 13.4551L18.2441 13.4043C18.332 13.1641 18.2598 12.8906 18.0625 12.7207V12.7207ZM15.3965 9.59961C15.4453 9.89453 15.4707 10.1973 15.4707 10.5C15.4707 10.8027 15.4453 11.1055 15.3965 11.4004L15.2676 12.1836L16.7266 13.4316C16.5054 13.9412 16.2262 14.4235 15.8945 14.8691L14.082 14.2266L13.4688 14.7305C13.002 15.1133 12.4824 15.4141 11.9199 15.625L11.1758 15.9043L10.8262 17.7988C10.2746 17.8613 9.71764 17.8613 9.16602 17.7988L8.81641 15.9004L8.07813 15.6172C7.52149 15.4063 7.00391 15.1055 6.54102 14.7246L5.92774 14.2188L4.10352 14.8672C3.77149 14.4199 3.49414 13.9375 3.27149 13.4297L4.7461 12.1699L4.61914 11.3887C4.57227 11.0977 4.54688 10.7969 4.54688 10.5C4.54688 10.2012 4.57032 9.90234 4.61914 9.61133L4.7461 8.83008L3.27149 7.57031C3.49219 7.06055 3.77149 6.58008 4.10352 6.13281L5.92774 6.78125L6.54102 6.27539C7.00391 5.89453 7.52149 5.59375 8.07813 5.38281L8.81836 5.10352L9.16797 3.20508C9.7168 3.14258 10.2773 3.14258 10.8281 3.20508L11.1777 5.09961L11.9219 5.37891C12.4824 5.58984 13.0039 5.89062 13.4707 6.27344L14.084 6.77734L15.8965 6.13477C16.2285 6.58203 16.5059 7.06445 16.7285 7.57227L15.2695 8.82031L15.3965 9.59961ZM10 6.86719C8.10157 6.86719 6.5625 8.40625 6.5625 10.3047C6.5625 12.2031 8.10157 13.7422 10 13.7422C11.8984 13.7422 13.4375 12.2031 13.4375 10.3047C13.4375 8.40625 11.8984 6.86719 10 6.86719ZM11.5469 11.8516C11.344 12.055 11.1029 12.2164 10.8374 12.3263C10.5719 12.4363 10.2873 12.4926 10 12.4922C9.41602 12.4922 8.86719 12.2637 8.45313 11.8516C8.24966 11.6487 8.08831 11.4076 7.97837 11.1421C7.86843 10.8766 7.81206 10.592 7.8125 10.3047C7.8125 9.7207 8.04102 9.17187 8.45313 8.75781C8.86719 8.34375 9.41602 8.11719 10 8.11719C10.584 8.11719 11.1328 8.34375 11.5469 8.75781C11.7503 8.9607 11.9117 9.20181 12.0216 9.46729C12.1316 9.73276 12.188 10.0173 12.1875 10.3047C12.1875 10.8887 11.959 11.4375 11.5469 11.8516Z" fill="black"/>
</svg>
