<svg width="20" height="21" viewBox="0 0 20 21" fill="none" xmlns="http://www.w3.org/2000/svg">
<path d="M9.37197 2.525C10.9871 2.39766 12.6029 2.76372 14.0054 3.57475C15.408 4.38577 16.5312 5.60353 17.2265 7.0669C17.9219 8.53026 18.1565 10.1703 17.8993 11.7699C17.6422 13.3695 16.9055 14.8534 15.7866 16.0251C14.6677 17.1969 13.2194 18.0013 11.6333 18.3319C10.0473 18.6625 8.39819 18.5038 6.90431 17.8767C5.41043 17.2496 4.14216 16.1837 3.26731 14.8201C2.39246 13.4564 1.95226 11.8593 2.00497 10.24C2.00792 10.1415 2.03025 10.0446 2.07067 9.9547C2.11109 9.86483 2.16881 9.78381 2.24055 9.71626C2.31228 9.6487 2.39662 9.59594 2.48874 9.56098C2.58087 9.52602 2.67898 9.50954 2.77747 9.5125C2.87596 9.51545 2.9729 9.53778 3.06277 9.5782C3.15263 9.61862 3.23365 9.67634 3.30121 9.74808C3.36876 9.81981 3.42153 9.90415 3.45649 9.99627C3.49145 10.0884 3.50792 10.1865 3.50497 10.285C3.45429 11.8179 3.94727 13.3193 4.89673 14.5237C5.84619 15.7282 7.19098 16.5581 8.69329 16.8668C10.1956 17.1754 11.7587 16.9429 13.1061 16.2104C14.4535 15.4778 15.4985 14.2924 16.0563 12.8637C16.6141 11.4351 16.6487 9.85517 16.1541 8.40343C15.6594 6.95169 14.6674 5.72161 13.3534 4.93071C12.0393 4.13981 10.488 3.83903 8.97356 4.08156C7.45916 4.32408 6.0793 5.09429 5.07797 6.256L4.87397 6.504H7.25297L7.35497 6.512C7.53448 6.5367 7.69898 6.62555 7.81806 6.76213C7.93714 6.89872 8.00274 7.07379 8.00274 7.255C8.00274 7.4362 7.93714 7.61128 7.81806 7.74786C7.69898 7.88444 7.53448 7.9733 7.35497 7.998L7.25297 8.005H3.25297L3.15097 7.998C2.98882 7.97573 2.8384 7.90103 2.72267 7.7853C2.60693 7.66956 2.53223 7.51915 2.50997 7.357L2.50297 7.255V3.255L2.50997 3.153C2.53223 2.99085 2.60693 2.84043 2.72267 2.72469C2.8384 2.60896 2.98882 2.53426 3.15097 2.512L3.25297 2.505L3.35497 2.512C3.51712 2.53426 3.66754 2.60896 3.78327 2.72469C3.899 2.84043 3.9737 2.99085 3.99597 3.153L4.00297 3.255L4.00197 5.208C5.37451 3.64894 7.30105 2.68675 9.37197 2.526V2.525ZM9.74997 6.504L9.85197 6.511C10.0141 6.53326 10.1645 6.60796 10.2803 6.72369C10.396 6.83943 10.4707 6.98985 10.493 7.152L10.5 7.254V10.499L12.25 10.5L12.352 10.507C12.5322 10.5309 12.6977 10.6195 12.8175 10.7562C12.9374 10.893 13.0034 11.0687 13.0034 11.2505C13.0034 11.4323 12.9374 11.608 12.8175 11.7448C12.6977 11.8815 12.5322 11.9701 12.352 11.994L12.25 12H9.74997L9.64797 11.994C9.48567 11.9717 9.33514 11.8968 9.21939 11.7809C9.10364 11.665 9.02903 11.5143 9.00697 11.352L8.99997 11.25V7.254L9.00697 7.152C9.02923 6.98985 9.10393 6.83943 9.21967 6.72369C9.3354 6.60796 9.48582 6.53326 9.64797 6.511L9.74997 6.504Z" fill="black"/>
</svg>
