<svg width="20" height="21" viewBox="0 0 20 21" fill="none" xmlns="http://www.w3.org/2000/svg">
<path d="M5.83333 14.6667C6.98393 14.6667 7.91667 13.7339 7.91667 12.5833C7.91667 11.4327 6.98393 10.5 5.83333 10.5C4.68274 10.5 3.75 11.4327 3.75 12.5833C3.75 13.7339 4.68274 14.6667 5.83333 14.6667Z" stroke="black" stroke-width="1.66667" stroke-linecap="round" stroke-linejoin="round"/>
<path d="M14.1668 14.6667C15.3174 14.6667 16.2502 13.7339 16.2502 12.5833C16.2502 11.4327 15.3174 10.5 14.1668 10.5C13.0162 10.5 12.0835 11.4327 12.0835 12.5833C12.0835 13.7339 13.0162 14.6667 14.1668 14.6667Z" stroke="black" stroke-width="1.66667" stroke-linecap="round" stroke-linejoin="round"/>
<path d="M10.0001 6.33332C11.1507 6.33332 12.0834 5.40058 12.0834 4.24999C12.0834 3.0994 11.1507 2.16666 10.0001 2.16666C8.84949 2.16666 7.91675 3.0994 7.91675 4.24999C7.91675 5.40058 8.84949 6.33332 10.0001 6.33332Z" stroke="black" stroke-width="1.66667" stroke-linecap="round" stroke-linejoin="round"/>
<path d="M10.0001 18.8333C10.0001 16.5321 8.13466 14.6667 5.83341 14.6667C3.53216 14.6667 1.66675 16.5321 1.66675 18.8333" stroke="black" stroke-width="1.66667" stroke-linecap="round" stroke-linejoin="round"/>
<path d="M18.3333 18.8333C18.3333 16.5321 16.4679 14.6667 14.1667 14.6667C11.8654 14.6667 10 16.5321 10 18.8333" stroke="black" stroke-width="1.66667" stroke-linecap="round" stroke-linejoin="round"/>
<path d="M14.1668 10.5C14.1668 8.19873 12.3014 6.33331 10.0002 6.33331C7.69891 6.33331 5.8335 8.19873 5.8335 10.5" stroke="black" stroke-width="1.66667" stroke-linecap="round" stroke-linejoin="round"/>
</svg>
